<svg width="195" height="286" viewBox="0 0 195 286" fill="none" xmlns="http://www.w3.org/2000/svg">
<rect width="194.658" height="285.228" rx="9.59383" fill="#F29F8D"/>
<path d="M79.2675 136.184V144.184H78.0675V136.184H79.2675ZM68.1475 140.184C68.1475 139.544 68.3022 138.979 68.6115 138.488C68.9208 137.997 69.3528 137.613 69.9075 137.336C70.4622 137.059 71.0862 136.92 71.7795 136.92C72.4728 136.92 73.0968 137.059 73.6515 137.336C74.2062 137.613 74.6382 137.997 74.9475 138.488C75.2568 138.979 75.4115 139.544 75.4115 140.184C75.4115 140.813 75.2568 141.379 74.9475 141.88C74.6382 142.371 74.2062 142.755 73.6515 143.032C73.0968 143.299 72.4728 143.432 71.7795 143.432C71.0862 143.432 70.4622 143.299 69.9075 143.032C69.3528 142.755 68.9208 142.371 68.6115 141.88C68.3022 141.379 68.1475 140.813 68.1475 140.184ZM69.3155 140.184C69.3155 140.845 69.5448 141.384 70.0035 141.8C70.4728 142.216 71.0648 142.424 71.7795 142.424C72.4942 142.424 73.0808 142.216 73.5395 141.8C74.0088 141.384 74.2435 140.845 74.2435 140.184C74.2435 139.523 74.0088 138.984 73.5395 138.568C73.0808 138.141 72.4942 137.928 71.7795 137.928C71.0648 137.928 70.4728 138.141 70.0035 138.568C69.5448 138.984 69.3155 139.523 69.3155 140.184ZM70.2595 144.952H79.2675V149.976H70.2595V144.952ZM78.0995 149V145.912H71.4275V149H78.0995ZM86.7079 137.4V139.944C86.7079 140.776 86.8785 141.603 87.2199 142.424C87.5612 143.235 88.0199 143.96 88.5959 144.6C89.1719 145.24 89.7959 145.715 90.4679 146.024L89.7479 146.984C88.9479 146.589 88.2279 145.997 87.5879 145.208C86.9479 144.408 86.4625 143.507 86.1319 142.504C85.8119 143.571 85.3265 144.525 84.6759 145.368C84.0252 146.211 83.2892 146.835 82.4679 147.24L81.7319 146.248C82.4039 145.928 83.0279 145.437 83.6039 144.776C84.1905 144.115 84.6545 143.363 84.9959 142.52C85.3372 141.667 85.5079 140.808 85.5079 139.944V137.4H86.7079ZM92.0199 136.152H93.2199V150.184H92.0199V136.152ZM104.124 137.4V139.944C104.124 140.744 104.284 141.549 104.604 142.36C104.934 143.16 105.372 143.88 105.916 144.52C106.47 145.149 107.073 145.624 107.724 145.944L106.988 146.888C106.23 146.483 105.542 145.891 104.924 145.112C104.316 144.323 103.862 143.437 103.564 142.456C103.254 143.501 102.785 144.445 102.156 145.288C101.526 146.12 100.822 146.749 100.044 147.176L99.3078 146.2C99.9691 145.869 100.577 145.373 101.132 144.712C101.697 144.04 102.14 143.288 102.46 142.456C102.79 141.613 102.956 140.776 102.956 139.944V137.4H104.124ZM109.02 136.168H110.22V141.864H112.556V142.888H110.22V150.168H109.02V136.168ZM121.66 137.336V138.328H118.444V139.16C118.444 140.099 118.775 140.963 119.436 141.752C120.108 142.541 120.967 143.112 122.012 143.464L121.388 144.408C120.577 144.131 119.863 143.709 119.244 143.144C118.625 142.579 118.167 141.923 117.868 141.176C117.559 141.987 117.095 142.701 116.476 143.32C115.857 143.928 115.127 144.381 114.284 144.68L113.66 143.736C114.716 143.352 115.575 142.744 116.236 141.912C116.897 141.069 117.228 140.152 117.228 139.16V138.328H113.996V137.336H121.66ZM115.964 145.464H117.148V148.856H125.356V149.848H115.964V145.464ZM123.708 136.184H124.924V146.44H123.708V136.184Z" fill="black"/>
</svg>
