<svg width="13" height="16" viewBox="0 0 13 16" fill="none" xmlns="http://www.w3.org/2000/svg">
<path d="M7.55732 13.1729C7.15458 12.5929 7.23939 11.8368 7.74612 11.4839C8.25286 11.1319 8.99144 11.3156 9.39419 11.8961C9.79736 12.4753 9.71255 13.2317 9.20538 13.5842C8.69822 13.9366 7.96007 13.7525 7.55732 13.1729Z" fill="#F7DECE"/>
<path d="M7.86293 10.8282L8.66033 12.3156C8.77284 12.5227 8.69527 12.7959 8.48985 12.9054C8.28358 13.0179 8.02531 12.9468 7.9128 12.7396L7.16697 11.3673L6.19484 12.0433L6.00945 11.1338C5.94893 11.04 8.29977 9.97881 8.45789 9.80237C8.45789 9.80237 8.66715 10.3679 7.86293 10.8282Z" fill="#F7DECE"/>
<path d="M10.2537 9.50147L8.40362 9.51554C8.18371 9.51724 8.00556 9.69794 8.00684 9.91743C8.00855 10.1369 8.1901 10.3159 8.40959 10.3138L10.2601 10.3006C10.48 10.2989 10.6581 10.1177 10.6569 9.89825C10.6547 9.67877 10.4736 9.50019 10.2537 9.50147Z" fill="#F7DECE"/>
<path d="M11.9548 10.1588C11.6382 10.0953 10.6004 9.53872 10.3473 9.52593C10.0941 9.51315 10.0067 9.60648 9.936 9.81531C9.86525 10.0224 10.031 10.1337 10.3728 10.3745C10.7146 10.6148 11.6135 10.5897 11.8159 10.6404C11.8734 10.6549 11.9855 10.8045 12.0942 10.8556C12.3094 10.9571 12.4492 10.8254 12.5754 10.8305C12.7637 10.8382 12.8993 10.9196 12.93 10.8305L12.9935 10.7167C13.0442 10.5394 12.7927 10.3958 12.5379 10.2355C12.4079 10.1537 12.0614 10.1801 11.9548 10.1588Z" fill="#F7DECE"/>
<path d="M9.39267 11.8964C9.39267 11.8964 9.60704 12.1431 9.83548 12.3247C10.0963 12.5322 10.3397 13.1349 9.98549 13.4634C9.91858 13.879 9.28484 14.2928 8.7129 14.3627C8.0668 14.4415 7.62996 14.0648 7.38064 13.5376C7.15136 13.053 7.30137 12.3946 7.30137 12.3946C7.47952 12.9571 8.1921 13.3522 8.47466 13.1834C8.31655 13.1604 8.18912 13.0522 8.14053 12.9584C8.58973 13.1344 8.98737 12.6695 9.51925 13.004C9.51925 13.004 9.50774 12.9115 9.58104 12.6332C9.64753 12.3814 9.52223 12.1227 9.39267 11.8964Z" fill="#292F33"/>
<path d="M7.78862 4.13858C7.71702 4.35338 7.47793 4.55028 7.40079 4.62572C7.05046 4.96794 6.37155 5.63791 6.03955 5.87785L7.15701 6.79415C7.40036 6.56103 7.79799 6.06154 8.14107 5.63237C8.34564 5.37666 8.55703 5.24582 8.68404 4.85841C8.68404 4.85841 8.96873 3.39191 9.39577 2.29192C9.53215 1.94032 8.84002 1.69313 8.68404 1.98592C8.52933 2.27615 8.33286 2.69083 8.231 2.96402C8.16196 3.15111 7.82101 4.04141 7.78862 4.13858Z" fill="#F7DECE"/>
<path d="M8.61101 1.41058C8.58757 1.48047 8.52493 1.73363 8.5245 1.82995L8.42221 2.40402C8.41625 2.43257 8.43585 2.46028 8.46441 2.46454C8.54837 2.47775 8.81985 2.42874 8.98691 2.58046C9.09857 2.68189 9.11136 2.86302 9.17571 2.89072C9.19617 2.89925 9.21961 2.88859 9.22685 2.86771C9.22685 2.86771 9.24688 2.76287 9.27373 2.67337C9.32914 2.60262 9.39434 2.46028 9.49492 2.40317C9.55459 2.39294 9.61895 2.33881 9.77621 2.32901C9.86954 2.32304 10.2979 2.29279 10.2979 2.29279C10.4065 2.28725 10.4406 2.25315 10.499 2.24931C10.6192 2.24079 10.9337 2.25017 11.036 2.24207C11.1379 2.2344 11.1958 2.17175 11.2163 2.11762C11.2367 2.06392 11.2312 2.02898 11.2312 2.02898C11.2312 2.02898 11.1319 1.85722 10.551 1.62154C10.2101 1.48346 8.76572 1.16382 8.76572 1.16382L8.71159 1.20644C8.6579 1.24906 8.63573 1.33728 8.61101 1.41058Z" fill="#DD551F"/>
<path d="M9.46739 2.4869C9.46441 2.49884 9.45844 2.51034 9.44991 2.52015C9.42221 2.55083 9.37448 2.55339 9.34379 2.52526L9.2462 2.43661C9.21509 2.40848 9.21381 2.36033 9.24108 2.33049C9.26921 2.29981 9.31652 2.29725 9.3472 2.32538L9.4448 2.41402C9.46568 2.43278 9.47336 2.46091 9.46739 2.4869Z" fill="#CCD6DD"/>
<path d="M9.50182 1.47047C9.44513 1.55059 9.26486 1.72234 9.10759 1.74578C8.9661 1.76709 8.60725 1.72064 8.53906 1.71169C8.55441 1.60088 8.60043 1.43509 8.61791 1.38267C8.64135 1.31363 8.67374 1.22285 8.72658 1.18364C8.73212 1.17981 9.30833 1.40526 9.50182 1.47047Z" fill="#FA743E"/>
<path d="M8.71748 1.18327C8.71748 1.18327 8.77715 1.19819 8.81167 1.2357C8.84619 1.27363 8.94294 1.31667 9.01667 1.34139C9.0904 1.36611 9.36614 1.46413 9.56687 1.50291C9.76761 1.5417 10.1418 1.56343 10.2628 1.58858C10.3839 1.61372 10.5697 1.65975 10.7022 1.71729C10.8344 1.77482 10.9516 1.83065 11.0223 1.86943C11.1139 1.91887 11.1851 1.97385 11.2316 2.02883C11.2316 2.02883 11.2576 1.86901 11.053 1.6947C10.891 1.55704 10.727 1.46285 10.5595 1.40319C10.5467 1.3985 10.097 1.25104 9.87202 1.17816C9.70752 1.12531 9.44498 1.0388 9.44498 1.0388C9.13472 0.934382 8.9749 0.889633 8.91097 0.889206C8.89947 0.889206 8.85429 0.880683 8.79974 0.904123C8.76394 0.919039 8.67785 1.17006 8.71748 1.18327ZM9.70666 2.37063C9.70027 2.39791 9.67896 2.42007 9.64955 2.42689C9.60907 2.43584 9.569 2.41026 9.56005 2.36978L9.5315 2.24107C9.52298 2.19973 9.54812 2.16052 9.58861 2.15114C9.6291 2.14219 9.66916 2.16777 9.67811 2.20825L9.70666 2.33696C9.70965 2.34847 9.70922 2.35997 9.70666 2.37063ZM9.97005 2.32886C9.9628 2.35997 9.93595 2.38427 9.90228 2.38682C9.86094 2.38938 9.82472 2.35827 9.82216 2.31693L9.81236 2.17799C9.80937 2.13495 9.84049 2.10043 9.88225 2.09744C9.92359 2.09489 9.95982 2.126 9.96237 2.16734L9.97218 2.30628C9.97218 2.31437 9.97175 2.32162 9.97005 2.32886ZM10.2377 2.30287C10.2296 2.33739 10.1976 2.36253 10.161 2.3604C10.1196 2.3587 10.0877 2.32332 10.0898 2.28156L10.0962 2.15413C10.0992 2.1098 10.1337 2.08082 10.175 2.08295C10.2164 2.08466 10.2483 2.12003 10.2462 2.1618L10.2398 2.28923C10.2394 2.29434 10.239 2.2986 10.2377 2.30287Z" fill="#CCD6DD"/>
<path d="M3.04936 4.59294C3.27439 4.86016 3.95288 5.33706 4.02789 5.41506C4.39356 5.79308 4.80099 6.02322 5.07716 6.38463L4.07093 7.42197C3.80244 7.21825 3.53266 6.88838 3.1427 6.50098C2.91043 6.27041 2.46208 5.40653 2.18804 5.12141C2.18804 5.12141 1.54834 4.32785 0.998556 3.2837C0.822968 2.94957 1.42133 2.68022 1.67108 2.89843C1.9383 3.13198 2.26518 3.51213 2.51407 3.7947C2.64534 3.94386 2.98331 4.51452 3.04936 4.59294Z" fill="#F7DECE"/>
<path d="M0.13689 1.1102C0.443744 0.707457 1.12948 0.889439 1.31402 1.4064C1.43804 1.75417 1.444 2.29969 1.61618 2.47144C1.78794 2.64362 1.85357 2.91212 1.85655 3.00162C1.85954 3.09112 1.76023 3.15334 1.66775 3.06682C1.66775 3.06682 1.91792 3.3366 1.63408 3.36899C1.35067 3.40095 1.5433 3.58464 1.35749 3.53861C1.17167 3.49216 1.19937 3.35535 1.19937 3.35535C1.19937 3.35535 1.20065 3.6865 1.06385 3.54415C0.92704 3.40138 0.254518 2.41902 0.106205 1.96044C0.00903441 1.65956 -0.0868575 1.40385 0.13689 1.1102Z" fill="#CCD6DD"/>
<path d="M0.242048 1.20764C0.531855 0.792537 1.18221 1.11473 1.28279 1.46975C1.38337 1.82476 1.40852 2.28632 1.5807 2.45807C1.75245 2.62983 1.98344 2.9614 1.986 3.0509C1.98899 3.1404 1.85474 3.20177 1.76225 3.11525C1.76225 3.11525 2.06144 3.40335 1.7776 3.43532C1.49376 3.46728 1.56791 3.71745 1.3821 3.67142C1.19628 3.6254 1.16389 3.34156 1.16389 3.34156C1.16389 3.34156 1.16517 3.6727 1.02836 3.53036C0.891556 3.38758 0.329416 2.4845 0.189627 2.02336C0.049838 1.56223 0.105668 1.40284 0.242048 1.20764Z" fill="#DD551F"/>
<path d="M1.04799 3.06485C1.02923 3.08573 1.02327 3.11599 1.03435 3.14369C1.05012 3.18205 1.09401 3.20037 1.13237 3.18461L1.62675 2.93102C1.66553 2.9144 1.68343 2.87136 1.66766 2.83258C1.65189 2.79422 1.608 2.77589 1.56964 2.79166L1.07526 3.04524C1.06461 3.05036 1.05566 3.05675 1.04799 3.06485ZM0.879643 2.73285C0.860891 2.75373 0.854924 2.78399 0.866005 2.81169C0.881774 2.85005 0.925671 2.86838 0.964028 2.85261L1.42857 2.64804C1.46735 2.63142 1.48525 2.58837 1.46948 2.54959C1.45372 2.51123 1.40982 2.49291 1.37146 2.50867L0.906919 2.71324C0.896264 2.71836 0.886888 2.72475 0.879643 2.73285ZM0.744116 2.41875C0.718971 2.43878 0.708742 2.4733 0.720675 2.50484C0.736018 2.54362 0.779489 2.5628 0.817846 2.54746L1.23295 2.37059C1.27301 2.35482 1.29091 2.3122 1.276 2.27299C1.26108 2.23464 1.21761 2.21546 1.17883 2.2308L0.76372 2.40767C0.756049 2.41023 0.749656 2.41406 0.744116 2.41875ZM0.640126 2.1217C0.609015 2.13917 0.594524 2.1771 0.606457 2.21162C0.620095 2.25083 0.66314 2.27129 0.701923 2.25765L1.09998 2.10891C1.14175 2.09357 1.15965 2.05223 1.14601 2.01302C1.13237 1.97381 1.08933 1.95335 1.05054 1.96699L0.652485 2.11616C0.647797 2.11744 0.643962 2.11957 0.640126 2.1217Z" fill="#CCD6DD"/>
<path d="M5.0045 8.51659C5.0045 8.51659 4.27231 8.06356 3.97356 7.83384C3.67565 7.60413 2.98608 6.58085 2.98608 6.58085C2.98608 6.58085 3.83206 5.70675 4.29618 5.40373L5.39745 6.2203L6.41646 5.27332C6.41646 5.27332 7.47766 5.69567 7.77088 6.18493C7.77088 6.18493 7.28971 6.96996 7.13799 7.22312C7.13074 7.41831 7.1414 7.66592 7.23942 7.67871L5.0045 8.51659Z" fill="#DD551F"/>
<path d="M5.02322 12.8292L5.801 11.15C5.89263 10.9506 6.13087 10.8632 6.33033 10.9548C6.52936 11.0473 6.61758 11.2864 6.5251 11.4854L5.74858 13.165C5.6561 13.3645 5.41786 13.4523 5.21798 13.3598C5.01895 13.2678 4.93159 13.0291 5.02322 12.8292Z" fill="#F7DECE"/>
<path d="M4.80154 14.9442C4.80154 14.9442 4.92811 13.4461 4.96604 13.1593C5.00397 12.8725 5.22133 12.6492 5.44081 12.6709C5.6586 12.6918 5.76045 12.8546 5.78901 13.2224C5.81714 13.5902 5.3803 14.5887 5.41951 14.9787C5.43229 15.1053 5.81756 15.2135 5.71059 15.2954C5.66328 15.3316 5.34705 15.3648 5.28014 15.3584L5.03977 15.3712C4.93237 15.3606 4.66132 15.3844 4.59654 15.3077C4.5292 15.228 4.79003 15.0554 4.80154 14.9442Z" fill="#F7DECE"/>
<path d="M6.65704 11.8051C6.65704 11.8051 6.89912 11.6151 7.07428 11.4744C7.07428 11.4744 6.89997 11.1671 7.33639 10.8445C7.77323 10.5215 8.05579 10.6753 8.05579 10.6753C8.05579 10.6753 8.15424 10.7137 8.49817 10.6101C8.6614 10.5611 8.98701 10.4793 8.98701 10.4793C8.98701 10.4793 8.96953 9.79014 8.87321 9.37077L8.04172 9.33796C8.04172 9.33796 7.7728 8.75323 7.53414 8.49496C7.1787 8.10969 7.23197 7.45762 7.20256 7.30249C7.20256 7.30249 6.17631 7.70992 5.43432 7.91876C4.85982 8.08071 4.03174 7.92898 4.03174 7.92898C4.23673 8.20814 4.78524 8.75834 5.03157 9.14575C5.32436 9.60645 5.97429 10.9549 5.78805 11.162C5.60138 11.3696 5.33587 11.8162 5.33587 11.8162C5.33587 11.8162 5.59797 12.0076 5.77569 12.158C6.02459 12.3681 6.23256 12.4193 6.23256 12.4193C6.23256 12.4193 6.50703 11.9496 6.65704 11.8051Z" fill="#FA743E"/>
</svg>
