<svg width="19" height="20" viewBox="0 0 19 20" fill="none" xmlns="http://www.w3.org/2000/svg">
<g clip-path="url(#clip0_279_1988)">
<path fill-rule="evenodd" clip-rule="evenodd" d="M0.0742188 8.14453L9.35156 2.39258C9.42578 2.31836 9.57422 2.35547 9.64844 2.39258L18.9258 8.14453V6.36328L9.5 0.5L0.0742188 6.36328V8.14453Z" fill="#00769B" fill-opacity="0.6"/>
<path fill-rule="evenodd" clip-rule="evenodd" d="M9.5 6.4375C8.68359 6.4375 8.01562 7.10547 8.01562 7.92188C8.01562 8.73828 8.68359 9.36914 9.5 9.36914C10.3164 9.36914 10.9844 8.73828 10.9844 7.92188C10.9844 7.10547 10.3164 6.4375 9.5 6.4375Z" fill="#00769B" fill-opacity="0.6"/>
<path fill-rule="evenodd" clip-rule="evenodd" d="M7.45898 7.92188C7.45898 6.77148 8.34961 5.88086 9.5 5.88086C10.6504 5.88086 11.541 6.77148 11.541 7.92188C11.541 9.03516 10.6504 9.96289 9.5 9.96289C8.34961 9.96289 7.45898 9.03516 7.45898 7.92188ZM9.5 2.98633L1.48438 7.95898V9.70312H2.22656C2.41211 9.70312 2.52344 9.81445 2.52344 10V15.9746H3.30273C3.1543 15.752 3.08008 15.4922 3.08008 15.2324C3.08008 14.4902 3.67383 13.8965 4.41602 13.8965C5.1582 13.8965 5.75195 14.4902 5.75195 15.2324C5.75195 15.4922 5.64062 15.752 5.5293 15.9746H6.45703C6.53125 14.8242 7.01367 14.1934 8.94336 14.1934H14.3613C15.1035 14.1934 15.7344 14.7129 15.7344 15.3438V15.9746H16.4766V13.377C16.4766 13.2285 16.5879 13.0801 16.7734 13.0801H17.5527V7.95898L9.5 2.98633Z" fill="#00769B" fill-opacity="0.6"/>
<path fill-rule="evenodd" clip-rule="evenodd" d="M1.9668 19.5V10.2969H1.1875H0.445312V19.5H1.9668Z" fill="#00769B" fill-opacity="0.6"/>
<path fill-rule="evenodd" clip-rule="evenodd" d="M3.63672 15.2324C3.63672 15.6035 3.89648 15.9004 4.26758 15.9746H4.56445C4.89844 15.9004 5.1582 15.6035 5.1582 15.2324C5.1582 14.7871 4.82422 14.4531 4.41602 14.4531C3.9707 14.4531 3.63672 14.7871 3.63672 15.2324Z" fill="#00769B" fill-opacity="0.6"/>
<path fill-rule="evenodd" clip-rule="evenodd" d="M16.4766 16.5684H2.52344V18.0527H16.4766V16.5684Z" fill="#00769B" fill-opacity="0.6"/>
<path fill-rule="evenodd" clip-rule="evenodd" d="M7.05078 15.9746H15.1406V15.3438C15.1406 15.0098 14.7695 14.75 14.3613 14.75H8.94336C7.42188 14.75 7.08789 15.1211 7.05078 15.9746Z" fill="#00769B" fill-opacity="0.6"/>
<path fill-rule="evenodd" clip-rule="evenodd" d="M17.0332 13.6738V19.5H18.5547V13.6738H17.8496H17.0332Z" fill="#00769B" fill-opacity="0.6"/>
</g>
<defs>
<clipPath id="clip0_279_1988">
<rect width="19" height="19" fill="white" transform="translate(0 0.5)"/>
</clipPath>
</defs>
</svg>
