<svg width="28" height="20" viewBox="0 0 28 20" fill="none" xmlns="http://www.w3.org/2000/svg">
<path d="M26.7273 8.76536H4.34486L11.0815 2.14911C11.203 2.0338 11.3 1.89587 11.3667 1.74337C11.4334 1.59086 11.4685 1.42684 11.47 1.26086C11.4714 1.09489 11.4392 0.930288 11.3752 0.776668C11.3113 0.623047 11.2167 0.483482 11.0972 0.366116C10.9777 0.24875 10.8356 0.155934 10.6792 0.0930829C10.5228 0.0302318 10.3552 -0.00139507 10.1862 4.71963e-05C10.0172 0.00148947 9.85022 0.0359723 9.69494 0.101484C9.53967 0.166995 9.39923 0.262223 9.28182 0.381611L0.372641 9.13161C0.134039 9.36602 0 9.6839 0 10.0154C0 10.3468 0.134039 10.6647 0.372641 10.8991L9.28182 19.6491C9.52186 19.8768 9.84336 20.0028 10.1771 20C10.5108 19.9971 10.83 19.8656 11.066 19.6339C11.3019 19.4021 11.4358 19.0886 11.4387 18.7609C11.4416 18.4331 11.3133 18.1174 11.0815 17.8816L4.34486 11.2654H26.7273C27.0648 11.2654 27.3885 11.1337 27.6272 10.8992C27.8659 10.6648 28 10.3469 28 10.0154C28 9.68384 27.8659 9.3659 27.6272 9.13148C27.3885 8.89706 27.0648 8.76536 26.7273 8.76536Z" fill="#959595"/>
</svg>
