<svg width="20" height="20" viewBox="0 0 20 20" fill="#fff" xmlns="http://www.w3.org/2000/svg">
<g clip-path="url(#clip0_172_748)">
<path d="M7.48698 3.33529C8.408 3.33529 9.15463 2.58866 9.15463 1.66765C9.15463 0.74663 8.408 0 7.48698 0C6.56597 0 5.81934 0.74663 5.81934 1.66765C5.81934 2.58866 6.56597 3.33529 7.48698 3.33529Z" fill="#fff"/>
<path d="M14.2349 15.321C13.9131 15.1677 13.528 15.3029 13.374 15.6249C12.4783 17.4986 10.5577 18.7086 8.48214 18.7086C5.49407 18.7086 3.06254 16.2778 3.06254 13.2894C3.06254 11.5929 3.83514 10.0255 5.18241 8.98992C5.46521 8.77253 5.51822 8.36728 5.30117 8.08481C5.08344 7.80167 4.67853 7.74934 4.39606 7.96605C2.72875 9.24824 1.77197 11.1886 1.77197 13.2894C1.77197 16.9893 4.78219 20.0002 8.48247 20.0002C11.0519 20.0002 13.4297 18.501 14.5388 16.1822C14.6921 15.8598 14.5559 15.475 14.2349 15.321Z" fill="#fff"/>
<path d="M18.1216 15.819L14.6447 10.241C14.4787 9.97433 14.1499 9.91159 13.8 9.92434H9.42307C9.24527 9.92434 9.10135 9.90555 9.10236 9.88308L9.1047 9.84181V9.13128C9.1047 8.95314 9.13322 8.81392 9.16912 8.81761C9.19059 8.81996 9.21273 8.82163 9.23453 8.82163H13.0539C13.4843 8.82163 13.8336 8.47241 13.8336 8.04166C13.8336 7.61124 13.4843 7.26201 13.0539 7.26201H9.23453C9.21273 7.26201 9.19059 7.26336 9.16912 7.2657C9.13322 7.27006 9.1047 7.13084 9.1047 6.95237V5.12839C9.1047 4.43497 8.54245 3.87305 7.84936 3.87305H7.5008C6.80704 3.87305 6.24512 4.43497 6.24512 5.12839V10.0038V11.439C6.24512 12.1321 6.80704 12.6944 7.5008 12.6944H7.84936H8.45523H13.5095C13.6876 12.6944 13.9114 12.8148 14.0097 12.9637C14.6142 13.8772 16.5489 16.7996 16.5489 16.7996C16.782 17.1743 17.3245 17.2595 17.7589 16.9888C18.1927 16.718 18.3547 16.1944 18.1216 15.819Z" fill="#fff"/>
</g>
<defs>
<clipPath id="clip0_172_748">
<rect width="20" height="20" fill="#fff"/>
</clipPath>
</defs>
</svg>
