<svg viewBox="0 0 25 25" fill="none" xmlns="http://www.w3.org/2000/svg">
<g clip-path="url(#clip0_279_3742)">
<path d="M14.5794 12.5L24.5688 2.51057C25.1437 1.93559 25.1437 1.00622 24.5688 0.431237C23.9938 -0.143746 23.0644 -0.143746 22.4894 0.431237L12.5 10.4206L2.51057 0.431237C1.93559 -0.143746 1.00622 -0.143746 0.431237 0.431237C-0.143746 1.00622 -0.143746 1.93559 0.431237 2.51057L10.4206 12.5L0.431237 22.4894C-0.143746 23.0644 -0.143746 23.9937 0.431237 24.5687C0.717997 24.8555 1.09445 24.9996 1.4709 24.9996C1.84736 24.9996 2.22381 24.8554 2.51057 24.5687L12.5 14.5793L22.4894 24.5687C22.7761 24.8555 23.1526 24.9996 23.529 24.9996C23.9055 24.9996 24.282 24.8554 24.5687 24.5687C25.1437 23.9937 25.1437 23.0644 24.5687 22.4894L14.5794 12.5Z" fill="#959595"/>
</g>
<defs>
<clipPath id="clip0_279_3742">
<rect width="25" height="25" fill="white"/>
</clipPath>
</defs>
</svg>
