<svg width="60" height="32" viewBox="0 0 60 32" fill="none" xmlns="http://www.w3.org/2000/svg">
<rect x="0.5" y="0.5" width="59" height="31" rx="13.5" fill="white"/>
<path d="M21.4556 9.824V11.36C21.4556 12.2987 21.7596 13.1627 22.3676 13.952C22.9863 14.7307 23.8076 15.3013 24.8316 15.664L24.1116 16.816C23.333 16.5387 22.6556 16.128 22.0796 15.584C21.5036 15.04 21.061 14.4053 20.7516 13.68C20.453 14.4693 20.005 15.1573 19.4076 15.744C18.821 16.32 18.117 16.7573 17.2956 17.056L16.5436 15.888C17.621 15.5147 18.469 14.9067 19.0876 14.064C19.7063 13.2213 20.0156 12.2773 20.0156 11.232V9.824H21.4556ZM18.3836 18.336H27.5996V23.232H26.1276V19.52H18.3836V18.336ZM26.1276 9.12H27.5996V12.768H29.6316V13.984H27.5996V17.648H26.1276V9.12ZM42.592 9.104V23.216H41.2V9.104H42.592ZM30.384 19.36C31.344 18.7733 32.08 17.904 32.592 16.752C33.1147 15.6 33.376 14.3627 33.376 13.04V11.904H30.8V10.704H37.216V11.904H34.8V13.04C34.8 14.3093 35.0507 15.4933 35.552 16.592C36.064 17.68 36.7893 18.496 37.728 19.04L36.848 20.112C36.1973 19.7173 35.6373 19.1787 35.168 18.496C34.7093 17.8027 34.352 17.0187 34.096 16.144C33.84 17.104 33.472 17.9573 32.992 18.704C32.5227 19.4507 31.952 20.032 31.28 20.448L30.384 19.36ZM36.16 14.128H38.368V9.424H39.728V22.512H38.368V15.328H36.16V14.128Z" fill="#D7443E"/>
<rect x="0.5" y="0.5" width="59" height="31" rx="13.5" stroke="#D7443E"/>
</svg>
