<svg width="48" height="48" viewBox="0 0 48 48" fill="none" xmlns="http://www.w3.org/2000/svg">
<g clip-path="url(#clip0_362_572)">
<path d="M17.9683 8.0047C20.1787 8.0047 21.9706 6.21278 21.9706 4.00235C21.9706 1.79191 20.1787 0 17.9683 0C15.7579 0 13.9659 1.79191 13.9659 4.00235C13.9659 6.21278 15.7579 8.0047 17.9683 8.0047Z" fill="#00769B"/>
<path d="M34.1637 36.7697C33.3915 36.4018 32.4672 36.7262 32.0977 37.4992C29.948 41.9959 25.3385 44.9 20.3571 44.9C13.1858 44.9 7.35012 39.066 7.35012 31.8938C7.35012 27.8222 9.20435 24.0606 12.4378 21.5751C13.1165 21.0534 13.2437 20.0808 12.7228 19.4029C12.2003 18.7233 11.2285 18.5977 10.5505 19.1178C6.549 22.1951 4.25275 26.852 4.25275 31.8938C4.25275 40.7737 11.4773 47.9998 20.358 47.9998C26.5245 47.9998 32.2313 44.4016 34.8931 38.8365C35.2611 38.0628 34.9342 37.1393 34.1637 36.7697Z" fill="#00769B"/>
<path d="M43.492 37.9656L35.1475 24.5786C34.749 23.9385 33.96 23.7879 33.1202 23.8185H22.6156C22.1888 23.8185 21.8434 23.7734 21.8458 23.7195L21.8515 23.6205V21.9152C21.8515 21.4876 21.9199 21.1535 22.0061 21.1624C22.0576 21.168 22.1107 21.172 22.1631 21.172H31.3296C32.3626 21.172 33.2007 20.3339 33.2007 19.3001C33.2007 18.2671 32.3626 17.4289 31.3296 17.4289H22.1631C22.1107 17.4289 22.0576 17.4321 22.0061 17.4378C21.9199 17.4483 21.8515 17.1141 21.8515 16.6858V12.3082C21.8515 10.644 20.5021 9.29541 18.8386 9.29541H18.0021C16.3371 9.29541 14.9885 10.644 14.9885 12.3082V24.0093V27.4537C14.9885 29.1171 16.3371 30.4666 18.0021 30.4666H18.8386H20.2927H32.423C32.8505 30.4666 33.3875 30.7556 33.6234 31.1131C35.0743 33.3055 39.7175 40.319 39.7175 40.319C40.2771 41.2184 41.579 41.4229 42.6217 40.7731C43.6627 40.1234 44.0516 38.8666 43.492 37.9656Z" fill="#00769B"/>
</g>
<defs>
<clipPath id="clip0_362_572">
<rect width="22" height="22" fill="white"/>
</clipPath>
</defs>
</svg>
