<svg width="20" height="20" viewBox="0 0 20 20" fill="#fff" xmlns="http://www.w3.org/2000/svg">
<path d="M9.99996 0C6.20328 0 3.11328 3.08934 3.11328 6.88668C3.11328 7.25469 3.41195 7.55336 3.77996 7.55336C4.14797 7.55336 4.44664 7.25469 4.44664 6.88668C4.44664 3.82469 6.93797 1.33336 9.99996 1.33336C13.062 1.33336 15.5533 3.82469 15.5533 6.88668C15.5533 8.88867 14.7739 9.65 13.6913 10.7067C12.5126 11.858 11.0459 13.29 11.0459 16.38C11.0459 17.6413 10.0199 18.6667 8.75859 18.6667C7.49793 18.6667 6.47191 17.6413 6.47191 16.38C6.47191 16.0113 6.17324 15.7133 5.80523 15.7133C5.43723 15.7133 5.13856 16.0113 5.13856 16.38C5.13856 18.376 6.76254 20 8.75856 20C10.7546 20 12.3792 18.376 12.3792 16.38C12.3792 13.852 13.5199 12.738 14.6266 11.6567C15.7379 10.572 16.8866 9.45133 16.8866 6.88668C16.8866 3.08934 13.7973 0 9.99996 0Z" fill="#fff"/>
<path d="M10.3222 10.1484C10.1242 9.37309 9.63619 8.72242 8.94955 8.31578C8.39155 7.98379 7.75491 7.84512 7.10955 7.9118C6.74354 7.94981 6.47756 8.27848 6.51623 8.64445C6.55424 9.01047 6.87557 9.27246 7.24889 9.23777C7.60623 9.20109 7.95889 9.27777 8.26889 9.46242C8.65022 9.68777 8.92022 10.0484 9.03022 10.4784C9.14088 10.9091 9.07623 11.3564 8.84955 11.7378C8.62287 12.1204 8.26155 12.3904 7.83155 12.5004C7.40155 12.6098 6.95487 12.5458 6.57287 12.3191C6.25619 12.1318 5.84686 12.2358 5.65955 12.5524C5.47221 12.8691 5.57623 13.2784 5.89287 13.4664C6.36155 13.7444 6.88487 13.8871 7.41619 13.8871C7.66487 13.8871 7.91487 13.8557 8.16084 13.7924C8.93619 13.5944 9.58752 13.1064 9.99549 12.4191C10.4049 11.7304 10.5202 10.9244 10.3222 10.1484Z" fill="#fff"/>
<path d="M10.3488 3.10938C8.20416 3.10938 6.45947 4.85473 6.45947 6.99938C6.45947 7.36738 6.75814 7.66606 7.12615 7.66606C7.49416 7.66606 7.79283 7.36738 7.79283 6.99938C7.79283 5.58938 8.93951 4.4427 10.3488 4.4427C11.7575 4.4427 12.9042 5.58938 12.9042 6.99938C12.9042 7.36738 13.2022 7.66606 13.5709 7.66606C13.9396 7.66606 14.2376 7.36738 14.2376 6.99938C14.2375 4.85469 12.4928 3.10938 10.3488 3.10938Z" fill="#fff"/>
<path d="M7.78081 6.73269C7.76816 6.36468 7.46347 6.07737 7.09214 6.0887C6.72413 6.10136 6.43546 6.40937 6.44816 6.77737L6.50749 8.5507C6.51949 8.91136 6.8155 9.19534 7.17351 9.19534C7.18085 9.19534 7.18816 9.19534 7.19617 9.19468C7.56417 9.18202 7.85284 8.87402 7.84015 8.50601L7.78081 6.73269Z" fill="#fff"/>
</svg>
