<svg width="19" height="20" viewBox="0 0 19 20" fill="none" xmlns="http://www.w3.org/2000/svg">
<path d="M6.33366 5.64583C6.78185 5.6463 7.21661 5.79888 7.5668 6.0786C7.91699 6.35832 8.16187 6.74862 8.26137 7.18562L9.50033 6.9125V5.25H3.16699V7.53792L4.38616 7.2925C4.46456 6.83248 4.70298 6.41496 5.05932 6.11366C5.41566 5.81236 5.86701 5.64667 6.33366 5.64583Z" fill="#00769B" fill-opacity="0.6"/>
<path d="M9.50016 8.67363V7.72363L7.70703 8.11947L9.50016 8.67363Z" fill="#00769B" fill-opacity="0.6"/>
<path d="M5.18164 7.34363L6.19893 7.65634L7.48935 7.35946C7.42645 7.10088 7.27851 6.87092 7.06927 6.70647C6.86003 6.54203 6.60162 6.45264 6.33549 6.45264C6.06937 6.45264 5.81096 6.54203 5.60172 6.70647C5.39248 6.87092 5.24454 7.10088 5.18164 7.35946V7.34363Z" fill="#00769B" fill-opacity="0.6"/>
<path d="M9.50033 9.50126L4.73053 8.03271L3.16699 8.34542V10H9.50033V9.50126Z" fill="#00769B" fill-opacity="0.6"/>
<path d="M1.18783 18.7083H11.4795C11.5845 18.7083 11.6852 18.6666 11.7594 18.5923C11.8336 18.5181 11.8753 18.4174 11.8753 18.3125V3.27078C11.8696 3.19348 11.8435 3.11907 11.7997 3.05512C11.7559 2.99116 11.6959 2.93992 11.626 2.90662L7.66762 1.32328C7.59356 1.30017 7.51487 1.29602 7.43879 1.31124C7.36271 1.32646 7.29167 1.36054 7.2322 1.41037C7.16738 1.48864 7.12986 1.58592 7.12533 1.68745V2.87495H1.18783C1.08284 2.87495 0.982162 2.91665 0.907929 2.99089C0.833696 3.06512 0.791992 3.1658 0.791992 3.27078V18.3125C0.791992 18.4174 0.833696 18.5181 0.907929 18.5923C0.982162 18.6666 1.08284 18.7083 1.18783 18.7083ZM2.37533 4.85412C2.37533 4.74914 2.41703 4.64845 2.49126 4.57422C2.5655 4.49999 2.66618 4.45828 2.77116 4.45828H9.89616C10.0011 4.45828 10.1018 4.49999 10.1761 4.57422C10.2503 4.64845 10.292 4.74914 10.292 4.85412V10.3958C10.292 10.5008 10.2503 10.6014 10.1761 10.6757C10.1018 10.7499 10.0011 10.7916 9.89616 10.7916H2.77116C2.66618 10.7916 2.5655 10.7499 2.49126 10.6757C2.41703 10.6014 2.37533 10.5008 2.37533 10.3958V4.85412ZM2.77116 11.5833H9.50033C9.60531 11.5833 9.70599 11.625 9.78022 11.6992C9.85446 11.7735 9.89616 11.8741 9.89616 11.9791C9.89616 12.0841 9.85446 12.1848 9.78022 12.259C9.70599 12.3332 9.60531 12.375 9.50033 12.375H2.77116C2.66618 12.375 2.5655 12.3332 2.49126 12.259C2.41703 12.1848 2.37533 12.0841 2.37533 11.9791C2.37533 11.8741 2.41703 11.7735 2.49126 11.6992C2.5655 11.625 2.66618 11.5833 2.77116 11.5833ZM2.77116 13.5625H6.33366C6.43864 13.5625 6.53932 13.6042 6.61356 13.6784C6.68779 13.7526 6.72949 13.8533 6.72949 13.9583C6.72949 14.0633 6.68779 14.1639 6.61356 14.2382C6.53932 14.3124 6.43864 14.3541 6.33366 14.3541H2.77116C2.66618 14.3541 2.5655 14.3124 2.49126 14.2382C2.41703 14.1639 2.37533 14.0633 2.37533 13.9583C2.37533 13.8533 2.41703 13.7526 2.49126 13.6784C2.5655 13.6042 2.66618 13.5625 2.77116 13.5625ZM2.77116 15.5416H9.50033C9.60531 15.5416 9.70599 15.5833 9.78022 15.6576C9.85446 15.7318 9.89616 15.8325 9.89616 15.9375C9.89616 16.0424 9.85446 16.1431 9.78022 16.2173C9.70599 16.2916 9.60531 16.3333 9.50033 16.3333H2.77116C2.66618 16.3333 2.5655 16.2916 2.49126 16.2173C2.41703 16.1431 2.37533 16.0424 2.37533 15.9375C2.37533 15.8325 2.41703 15.7318 2.49126 15.6576C2.5655 15.5833 2.66618 15.5416 2.77116 15.5416Z" fill="#00769B" fill-opacity="0.6"/>
<path d="M17.8124 1.2915H9.72949L11.9185 2.1663C12.1458 2.24476 12.3416 2.39479 12.4764 2.59389C12.6113 2.793 12.678 3.03045 12.6666 3.27067V4.06234H16.2291C16.3341 4.06234 16.4347 4.10404 16.509 4.17827C16.5832 4.25251 16.6249 4.35319 16.6249 4.45817C16.6249 4.56315 16.5832 4.66383 16.509 4.73807C16.4347 4.8123 16.3341 4.854 16.2291 4.854H12.6666V6.43734H15.4374C15.5424 6.43734 15.6431 6.47904 15.7173 6.55327C15.7915 6.62751 15.8332 6.72819 15.8332 6.83317C15.8332 6.93815 15.7915 7.03883 15.7173 7.11307C15.6431 7.1873 15.5424 7.229 15.4374 7.229H12.6666V8.81234H14.6457C14.7507 8.81234 14.8514 8.85404 14.9256 8.92827C14.9999 9.00251 15.0416 9.10319 15.0416 9.20817C15.0416 9.31315 14.9999 9.41383 14.9256 9.48807C14.8514 9.5623 14.7507 9.604 14.6457 9.604H12.6666V11.1873H15.8332C15.9382 11.1873 16.0389 11.229 16.1131 11.3033C16.1874 11.3775 16.2291 11.4782 16.2291 11.5832C16.2291 11.6882 16.1874 11.7888 16.1131 11.8631C16.0389 11.9373 15.9382 11.979 15.8332 11.979H12.6666V13.5623H16.2291C16.3341 13.5623 16.4347 13.604 16.509 13.6783C16.5832 13.7525 16.6249 13.8532 16.6249 13.9582C16.6249 14.0632 16.5832 14.1638 16.509 14.2381C16.4347 14.3123 16.3341 14.354 16.2291 14.354H12.6666V17.1248H17.8124C17.9174 17.1248 18.0181 17.0831 18.0923 17.0089C18.1665 16.9347 18.2082 16.834 18.2082 16.729V1.68734C18.2082 1.58236 18.1665 1.48167 18.0923 1.40744C18.0181 1.33321 17.9174 1.2915 17.8124 1.2915Z" fill="#00769B" fill-opacity="0.6"/>
</svg>
