<svg width="22" height="22" viewBox="0 0 22 22" fill="#fff" xmlns="http://www.w3.org/2000/svg">
<path d="M11.0003 4.125C5.23218 4.125 0.350927 10.3125 0.144677 10.5806C0.052134 10.7008 0.00195312 10.8483 0.00195312 11C0.00195312 11.1517 0.052134 11.2992 0.144677 11.4194C0.350927 11.6875 5.23218 17.875 11.0003 17.875C16.7684 17.875 21.6497 11.6875 21.8559 11.4194C21.9485 11.2992 21.9986 11.1517 21.9986 11C21.9986 10.8483 21.9485 10.7008 21.8559 10.5806C21.6497 10.3125 16.7684 4.125 11.0003 4.125ZM11.0003 16.5C6.71718 16.5 2.7503 12.375 1.58155 11C2.7503 9.625 6.7103 5.5 11.0003 5.5C15.2903 5.5 19.2503 9.625 20.4191 11C19.2503 12.375 15.2903 16.5 11.0003 16.5Z" fill="#fff"/>
<path d="M14.4375 10.3127C14.551 10.3126 14.6627 10.2845 14.7626 10.2307C14.8625 10.177 14.9476 10.0993 15.0102 10.0047C15.0729 9.91006 15.1111 9.8014 15.1215 9.68841C15.132 9.57542 15.1143 9.4616 15.07 9.35711C14.6918 8.60403 14.1098 7.97219 13.3903 7.53344C12.6708 7.0947 11.8427 6.86665 11 6.87523C9.90598 6.87523 8.85677 7.30983 8.08318 8.08342C7.3096 8.85701 6.875 9.90622 6.875 11.0002C6.875 12.0943 7.3096 13.1435 8.08318 13.917C8.85677 14.6906 9.90598 15.1252 11 15.1252C11.8427 15.1338 12.6708 14.9058 13.3903 14.467C14.1098 14.0283 14.6918 13.3964 15.07 12.6434C15.1143 12.5389 15.132 12.4251 15.1215 12.3121C15.1111 12.1991 15.0729 12.0904 15.0102 11.9958C14.9476 11.9012 14.8625 11.8235 14.7626 11.7698C14.6627 11.716 14.551 11.6878 14.4375 11.6877C14.3448 11.6975 14.2512 11.6864 14.1633 11.6552C14.0755 11.6241 13.9957 11.5738 13.9298 11.5079C13.8639 11.442 13.8136 11.3622 13.7825 11.2744C13.7514 11.1866 13.7403 11.0929 13.75 11.0002C13.7403 10.9076 13.7514 10.8139 13.7825 10.7261C13.8136 10.6382 13.8639 10.5584 13.9298 10.4926C13.9957 10.4267 14.0755 10.3763 14.1633 10.3452C14.2512 10.3141 14.3448 10.303 14.4375 10.3127Z" fill="#fff"/>
</svg>
