<svg viewBox="0 0 37 32" fill="current" xmlns="http://www.w3.org/2000/svg">
<path d="M31.45 3.76472H15.947L14.5965 1.03531C14.4448 0.723231 14.2101 0.460742 13.919 0.277714C13.6279 0.094687 13.2922 -0.00152796 12.95 1.8349e-05H5.55C4.0794 0.00448722 2.67029 0.600878 1.63041 1.65894C0.590533 2.717 0.00439207 4.15076 0 5.64707V26.3529C0.00439207 27.8493 0.590533 29.283 1.63041 30.3411C2.67029 31.3991 4.0794 31.9955 5.55 32H31.45C32.9206 31.9955 34.3297 31.3991 35.3696 30.3411C36.4095 29.283 36.9956 27.8493 37 26.3529V9.41178C36.9956 7.91546 36.4095 6.4817 35.3696 5.42364C34.3297 4.36558 32.9206 3.76919 31.45 3.76472ZM12.95 18.8235C12.4593 18.8235 11.9888 18.6252 11.6419 18.2722C11.2949 17.9192 11.1 17.4404 11.1 16.9412C11.1 16.442 11.2949 15.9632 11.6419 15.6102C11.9888 15.2572 12.4593 15.0588 12.95 15.0588H16.65V11.2941C16.65 10.7949 16.8449 10.3161 17.1919 9.96311C17.5388 9.6101 18.0093 9.41178 18.5 9.41178C18.9907 9.41178 19.4612 9.6101 19.8081 9.96311C20.1551 10.3161 20.35 10.7949 20.35 11.2941V15.0588H24.05C24.5407 15.0588 25.0112 15.2572 25.3581 15.6102C25.7051 15.9632 25.9 16.442 25.9 16.9412C25.9 17.4404 25.7051 17.9192 25.3581 18.2722C25.0112 18.6252 24.5407 18.8235 24.05 18.8235H20.35V22.5882C20.35 23.0875 20.1551 23.5663 19.8081 23.9193C19.4612 24.2723 18.9907 24.4706 18.5 24.4706C18.0093 24.4706 17.5388 24.2723 17.1919 23.9193C16.8449 23.5663 16.65 23.0875 16.65 22.5882V18.8235H12.95Z" fill="#FFD966"/>
</svg>
