<svg width="27" height="24" viewBox="0 0 27 24" fill="none" xmlns="http://www.w3.org/2000/svg">
<path d="M22.95 3.20589H11.637L10.6515 1.24413C10.5408 1.01982 10.3695 0.831158 10.1571 0.699607C9.94469 0.568056 9.69969 0.498902 9.45 0.500013H4.05C2.97686 0.503225 1.94859 0.931881 1.18976 1.69236C0.43093 2.45284 0.00320502 3.48336 0 4.55883V19.4412C0.00320502 20.5167 0.43093 21.5472 1.18976 22.3077C1.94859 23.0681 2.97686 23.4968 4.05 23.5H22.95C24.0231 23.4968 25.0514 23.0681 25.8102 22.3077C26.5691 21.5472 26.9968 20.5167 27 19.4412V7.26471C26.9968 6.18924 26.5691 5.15872 25.8102 4.39824C25.0514 3.63776 24.0231 3.20911 22.95 3.20589ZM9.45 14.0294C9.09196 14.0294 8.74858 13.8869 8.49541 13.6332C8.24223 13.3794 8.1 13.0353 8.1 12.6765C8.1 12.3177 8.24223 11.9735 8.49541 11.7198C8.74858 11.4661 9.09196 11.3235 9.45 11.3235H12.15V8.61765C12.15 8.25883 12.2922 7.91471 12.5454 7.66098C12.7986 7.40726 13.142 7.26471 13.5 7.26471C13.858 7.26471 14.2014 7.40726 14.4546 7.66098C14.7078 7.91471 14.85 8.25883 14.85 8.61765V11.3235H17.55C17.908 11.3235 18.2514 11.4661 18.5046 11.7198C18.7578 11.9735 18.9 12.3177 18.9 12.6765C18.9 13.0353 18.7578 13.3794 18.5046 13.6332C18.2514 13.8869 17.908 14.0294 17.55 14.0294H14.85V16.7353C14.85 17.0941 14.7078 17.4382 14.4546 17.692C14.2014 17.9457 13.858 18.0882 13.5 18.0882C13.142 18.0882 12.7986 17.9457 12.5454 17.692C12.2922 17.4382 12.15 17.0941 12.15 16.7353V14.0294H9.45Z" fill="#959595"/>
</svg>
