<svg width="27" height="24" viewBox="0 0 27 24" fill="none" xmlns="http://www.w3.org/2000/svg">
<path d="M27 6.23205V20.3903C27 21.2248 26.6952 22.025 26.1527 22.6151C25.6102 23.2051 24.8744 23.5366 24.1071 23.5366H2.89286C2.12562 23.5366 1.38981 23.2051 0.847298 22.6151C0.304782 22.025 0 21.2248 0 20.3903V3.61015C0 2.7757 0.304782 1.97543 0.847298 1.38539C1.38981 0.79535 2.12562 0.463867 2.89286 0.463867H7.71429C8.46245 0.464389 9.18132 0.780138 9.72 1.34483L11.3786 3.08577H24.1071C24.8744 3.08577 25.6102 3.41725 26.1527 4.00729C26.6952 4.59733 27 5.3976 27 6.23205Z" fill="#FFD966"/>
</svg>
