<svg  viewBox="0 0 23 23" fill="none" xmlns="http://www.w3.org/2000/svg">
<path d="M11.7423 20.2019C11.6497 20.2559 11.5691 20.3023 11.5017 20.3407C11.4341 20.3017 11.3532 20.2545 11.2602 20.1995C10.9504 20.0165 10.5065 19.7475 9.97334 19.4051C8.90604 18.7197 7.48561 17.7432 6.06767 16.5767C4.64725 15.4082 3.24424 14.0611 2.20012 12.6369C1.15189 11.2071 0.5 9.74692 0.5 8.34166C0.5 5.16272 3.07703 2.58564 6.25602 2.58565L6.25992 2.58562C8.20421 2.57046 10.0219 3.54838 11.0807 5.17921L11.4976 5.82142L11.9179 5.18145C12.9847 3.55734 14.799 2.58114 16.7422 2.58564C19.9153 2.60142 22.4839 5.16975 22.5 8.34291C22.4996 9.77221 21.8465 11.2439 20.7995 12.6763C19.7557 14.1041 18.3533 15.4479 16.9333 16.6104C15.5158 17.7709 14.0957 18.7386 13.0287 19.4168C12.4957 19.7555 12.052 20.0213 11.7423 20.2019Z" stroke="#777777"/>
</svg>
