<svg viewBox="0 0 24 27" fill="current" xmlns="http://www.w3.org/2000/svg">
<path fill-rule="evenodd" clip-rule="evenodd" d="M11.8073 22.6997V24.0453C11.8073 25.1243 11.2724 26.0559 10.343 26.5954C9.89582 26.8549 9.39672 26.9997 8.87926 27C8.36133 27.0003 7.86239 26.8552 7.4149 26.5954L1.46431 23.1411C0.534765 22.6015 0 21.6702 0 20.591V2.94458C0 1.32084 1.31373 0 2.92862 0H16.034C17.649 0 18.9628 1.32073 18.9628 2.94458V6.6644C18.9628 7.19802 18.5319 7.63128 18.0012 7.63128C17.4703 7.63128 17.0397 7.19807 17.0397 6.6644V2.94458C17.0397 2.38702 16.5885 1.93334 16.034 1.93334H4.55027L10.343 5.29658C11.2721 5.83605 11.8073 6.76734 11.8073 7.84612V20.7662H16.034C16.5884 20.7662 17.0397 20.3128 17.0397 19.7552V16.4943C17.0397 15.9603 17.47 15.5274 18.0012 15.5274C18.5321 15.5274 18.9628 15.9604 18.9628 16.4943V19.7552C18.9628 21.379 17.649 22.6997 16.034 22.6997H11.8073ZM20.7174 12.3165L19.6584 13.3813C19.2829 13.7588 19.283 14.3708 19.6584 14.7484C19.8392 14.9302 20.0827 15.0313 20.3383 15.0313C20.5941 15.0313 20.8375 14.9305 21.0185 14.7484L23.7185 12.0332C24.0938 11.6558 24.0939 11.044 23.7185 10.6666L21.0185 7.9518C20.6429 7.57422 20.0342 7.57438 19.6585 7.95175C19.2831 8.3289 19.2832 8.9412 19.6585 9.31846L20.7174 10.383H13.6232C13.092 10.383 12.6618 10.8158 12.6618 11.3499C12.6618 11.884 13.092 12.3166 13.6232 12.3166L20.7174 12.3165Z" fill="#595959"/>
</svg>
