<svg viewBox="0 0 24 24" fill="current" xmlns="http://www.w3.org/2000/svg">
<g clip-path="url(#clip0_238_141)">
<path d="M6.0177 12.7295H4.94141C4.65906 12.7295 4.40418 12.8976 4.29248 13.1565L1.31299 20.0942L8.38892 16.4802C7.54187 15.3082 6.7038 14.0154 6.0177 12.7295Z" fill="#595959"/>
<path d="M19.7073 13.1565C19.5958 12.8976 19.3408 12.7295 19.0586 12.7295H17.9823C16.6866 15.1575 14.799 17.6666 13.5982 19.047C12.7537 20.0156 11.2453 20.0145 10.4021 19.047C10.3159 18.9479 9.8656 18.4266 9.24542 17.625L7.96973 18.2769L12.7953 23.0931L21.9388 18.3528L19.7073 13.1565Z" fill="#595959"/>
<path d="M0.442563 22.1223L0.0576758 23.0186C-0.141543 23.4824 0.199766 24.0004 0.706418 24.0004H11.0682C11.133 23.9522 11.1337 23.9551 11.4816 23.7748L6.64892 18.9521L0.442563 22.1223Z" fill="#595959"/>
<path d="M23.9424 23.0179L22.4966 19.6514L14.1089 23.9998H23.2936C23.7992 23.9998 24.142 23.4827 23.9424 23.0179Z" fill="#595959"/>
<path d="M12.7057 6.34308C12.7057 5.95453 12.3889 5.63867 11.9998 5.63867C11.6105 5.63867 11.2939 5.95453 11.2939 6.34308C11.2939 6.73145 11.6105 7.04749 11.9998 7.04749C12.3889 7.04749 12.7057 6.73145 12.7057 6.34308Z" fill="#595959"/>
<path d="M12.5328 18.0758C12.7704 17.803 18.3528 11.3456 18.3528 6.90676C18.3528 -2.24632 5.64746 -2.35801 5.64746 6.90676C5.64746 11.3456 11.2298 17.803 11.4675 18.0758C11.7489 18.3986 12.2519 18.3983 12.5328 18.0758ZM9.88251 6.34334C9.88251 5.17806 10.8325 4.23012 12.0001 4.23012C13.1676 4.23012 14.1176 5.17806 14.1176 6.34334C14.1176 7.50844 13.1676 8.45638 12.0001 8.45638C10.8325 8.45638 9.88251 7.50844 9.88251 6.34334Z" fill="#595959"/>
</g>
<defs>
<clipPath id="clip0_238_141">
<rect width="24" height="24" fill="white"/>
</clipPath>
</defs>
</svg>
