<svg width="27" height="27" viewBox="0 0 27 27" fill="none" xmlns="http://www.w3.org/2000/svg">
<path d="M18.5625 17.7188H24.5278C24.2698 18.1701 23.9519 18.5845 23.5828 18.9506L18.9506 23.5828C18.5845 23.9519 18.1701 24.2698 17.7188 24.5278V18.5625C17.7188 18.3387 17.8076 18.1241 17.9659 17.9659C18.1241 17.8076 18.3387 17.7188 18.5625 17.7188Z" fill="#66ADC3"/>
<path d="M25.3125 4.21875V14.7741C25.3144 15.1968 25.2691 15.6185 25.1775 16.0312H18.5625C17.8918 16.0333 17.2491 16.3006 16.7748 16.7748C16.3006 17.2491 16.0333 17.8918 16.0312 18.5625V25.1775C15.6185 25.2691 15.1968 25.3144 14.7741 25.3125H4.21875C3.54804 25.3105 2.90537 25.0432 2.4311 24.5689C1.95683 24.0946 1.6895 23.452 1.6875 22.7812V4.21875C1.6895 3.54804 1.95683 2.90537 2.4311 2.4311C2.90537 1.95683 3.54804 1.6895 4.21875 1.6875H22.7812C23.452 1.6895 24.0946 1.95683 24.5689 2.4311C25.0432 2.90537 25.3105 3.54804 25.3125 4.21875Z" fill="#66ADC3"/>
</svg>
