<svg width="21" height="21" viewBox="0 0 21 21" fill="none" xmlns="http://www.w3.org/2000/svg">
<path d="M17.2282 10.8545C17.2282 10.4452 16.8963 10.1133 16.4869 10.1133C16.0775 10.1133 15.7457 10.4452 15.7457 10.8545C15.7452 13.7516 13.3963 16.0999 10.4992 16.0994C7.60271 16.099 5.25475 13.751 5.25432 10.8545C5.25432 10.4452 4.92244 10.1133 4.51305 10.1133C4.10367 10.1133 3.77179 10.4452 3.77179 10.8545C3.7757 14.2819 6.35265 17.1598 9.75875 17.5407V19.5174H7.06303C6.65364 19.5174 6.32176 19.8493 6.32176 20.2587C6.32176 20.6681 6.65364 21 7.06303 21H13.937C14.3464 21 14.6783 20.6681 14.6783 20.2587C14.6783 19.8493 14.3464 19.5174 13.937 19.5174H11.2413V17.5407C14.6473 17.1598 17.2243 14.2819 17.2282 10.8545Z" fill="#00769B"/>
<path d="M10.4999 0C8.21694 0 6.36615 1.85075 6.36615 4.1338V10.8274C6.36885 13.1093 8.21805 14.9585 10.4999 14.9612C12.7818 14.9585 14.631 13.1093 14.6337 10.8274V4.1338C14.6337 1.85075 12.783 0 10.4999 0Z" fill="#00769B"/>
</svg>
