<svg  viewBox="0 0 246 246" fill="current" xmlns="http://www.w3.org/2000/svg">
<circle cx="123" cy="123" r="123" fill="current"/>
<path d="M119.687 69.5353C116.396 67.7535 112.688 66.8826 108.947 67.0127C105.207 67.1428 101.568 68.2692 98.4085 70.2754L72.5132 86.8459L58.7832 91.2369C54.5522 92.9112 50.9509 95.867 48.4838 99.6903C46.0166 103.514 44.8072 108.013 45.025 112.558V134.238C44.8147 138.784 46.0287 143.281 48.4977 147.104C50.9667 150.926 54.5674 153.882 58.7973 155.559L72.5414 159.95L98.4085 176.521C101.761 178.663 105.658 179.796 109.636 179.784C113.145 179.781 116.598 178.909 119.687 177.247C122.661 175.707 125.156 173.383 126.904 170.527C128.652 167.671 129.586 164.391 129.604 161.043V85.4151C129.54 82.1193 128.583 78.9025 126.837 76.1065C125.091 73.3105 122.62 71.0397 119.687 69.5353Z" fill="white"/>
<path d="M181.86 123.398L198.022 107.236C199.305 105.907 200.016 104.127 200 102.279C199.984 100.43 199.242 98.6627 197.936 97.3559C196.629 96.0491 194.861 95.3078 193.013 95.2918C191.165 95.2757 189.385 95.9861 188.055 97.27L171.894 113.432L155.732 97.27C154.403 95.9861 152.622 95.2757 150.774 95.2918C148.926 95.3078 147.158 96.0491 145.852 97.3559C144.545 98.6627 143.804 100.43 143.788 102.279C143.771 104.127 144.482 105.907 145.766 107.236L161.927 123.398L145.766 139.56C145.093 140.21 144.556 140.987 144.186 141.847C143.817 142.707 143.622 143.632 143.614 144.568C143.606 145.504 143.784 146.432 144.139 147.298C144.493 148.164 145.017 148.951 145.678 149.613C146.34 150.275 147.127 150.798 147.993 151.153C148.86 151.507 149.788 151.685 150.724 151.677C151.659 151.669 152.584 151.475 153.444 151.105C154.304 150.736 155.082 150.199 155.732 149.526L171.894 133.364L188.055 149.526C189.385 150.81 191.165 151.52 193.013 151.504C194.861 151.488 196.629 150.747 197.936 149.44C199.242 148.133 199.984 146.365 200 144.517C200.016 142.669 199.305 140.889 198.022 139.56L181.86 123.398Z" fill="white"/>
</svg>
