<svg width="20" height="20" viewBox="0 0 20 20" fill="#fff" xmlns="http://www.w3.org/2000/svg">
<g clip-path="url(#clip0_172_769)">
<path d="M7.49512 5C8.87345 5 9.99512 3.87833 9.99512 2.5C9.99512 1.12167 8.87345 0 7.49512 0C6.11678 0 4.99512 1.12167 4.99512 2.5C4.99512 3.87833 6.11678 5 7.49512 5Z" fill="#fff"/>
<path d="M4.72823 20.0002H7.4999C7.9599 20.0002 8.33323 19.6268 8.33323 19.1668V10.6252L9.96323 11.851C10.2916 12.1435 10.6932 12.3302 11.1274 12.3927L12.4157 12.5793C12.8532 12.6435 13.2991 12.5118 13.6341 12.221C13.9707 11.9285 14.1641 11.5052 14.1641 11.0577C14.1641 10.4735 13.8407 9.94683 13.3207 9.68516L11.0007 8.51433C10.8482 8.43766 10.7191 8.32266 10.6249 8.18016L10.2032 7.5435C9.49656 6.476 8.30073 5.8335 7.0199 5.8335H6.0874C5.50823 5.8335 4.9624 6.04933 4.55323 6.441C3.2149 7.71683 2.56156 9.87683 2.49823 13.2385C2.48073 14.1802 2.7499 15.0977 3.2774 15.8943L3.5349 16.2827C3.90573 16.8427 4.10406 17.4993 4.10406 18.171V19.376C4.10323 19.7202 4.38323 20.0002 4.72823 20.0002Z" fill="#fff"/>
<path d="M10.5217 14.136C10.7108 12.1935 12.37 10.8335 14.1667 10.8335C16.0517 10.8335 17.6192 12.251 17.8108 14.1302L18.3283 19.0802C18.3767 19.5377 18.0442 19.9477 17.5858 19.9952C17.5567 19.9985 17.5275 20.0002 17.4992 20.0002C17.0775 20.0002 16.7167 19.6818 16.6717 19.2535L16.4883 17.5002H11.845L11.6617 19.2535C11.6167 19.6818 11.2558 20.0002 10.8342 20.0002C10.8058 20.0002 10.7767 19.9985 10.7475 19.9952C10.2892 19.9477 9.95751 19.5377 10.005 19.0802L10.5217 14.136ZM16.3133 15.8335L16.1525 14.301C16.0483 13.2752 15.1933 12.5002 14.1667 12.5002C12.9825 12.5002 12.2658 13.4227 12.1792 14.3027L12.0192 15.8335H16.3133Z" fill="#fff"/>
</g>
<defs>
<clipPath id="clip0_172_769">
<rect width="20" height="20" fill="#fff" transform="matrix(-1 0 0 1 20 0)"/>
</clipPath>
</defs>
</svg>
