<svg  viewBox="0 0 25 25" fill="none" xmlns="http://www.w3.org/2000/svg">
<g clip-path="url(#clip0_295_2493)">
<path d="M12.5 25C19.4036 25 25 19.4036 25 12.5C25 5.59644 19.4036 0 12.5 0C5.59644 0 0 5.59644 0 12.5C0 19.4036 5.59644 25 12.5 25Z" fill="#00425C"/>
<path d="M15.3611 13.3591C16.7538 12.4319 17.6723 10.8496 17.6723 9.05132C17.6723 6.19485 15.3563 3.87891 12.4999 3.87891C9.64342 3.87891 7.32747 6.19485 7.32747 9.05132C7.32747 10.8496 8.24601 12.4319 9.63868 13.3591C9.63868 13.3591 9.63911 13.3595 9.63954 13.3595C9.63911 13.3595 9.63911 13.3591 9.63911 13.3591C6.30549 14.3638 3.7098 17.0694 2.87402 20.4733L2.87445 20.4737C3.01066 20.638 3.15204 20.7983 3.29644 20.9556C3.33135 20.994 3.36799 21.0306 3.40376 21.0681C3.51497 21.1862 3.62747 21.3026 3.74299 21.4164C3.79083 21.4634 3.83954 21.5086 3.88825 21.5548C3.99514 21.6565 4.10333 21.7569 4.21368 21.8548C4.26842 21.903 4.32402 21.9509 4.3792 21.9983C4.48739 22.091 4.59687 22.1819 4.70851 22.2707C4.76713 22.3177 4.82618 22.3638 4.88523 22.4099C4.99816 22.497 5.11282 22.5815 5.22876 22.6643C5.28868 22.7069 5.34773 22.7505 5.40851 22.7923C5.53092 22.8768 5.65549 22.9578 5.78092 23.038C5.83738 23.0737 5.89256 23.1108 5.94945 23.1461C6.09428 23.2354 6.2417 23.3207 6.3904 23.4043C6.42963 23.4263 6.46799 23.45 6.50764 23.4716C6.69988 23.5768 6.89514 23.6776 7.09342 23.7729C7.09816 23.775 7.10333 23.7772 7.10807 23.7793C7.2973 23.8699 7.48954 23.9556 7.68394 24.0367C7.74428 24.0621 7.80592 24.0845 7.86669 24.1086C8.00721 24.1647 8.14773 24.2199 8.29083 24.2707C8.3667 24.2979 8.44342 24.3224 8.51971 24.3483C8.64988 24.3923 8.78092 24.4349 8.91282 24.4742C8.99644 24.4992 9.08049 24.5224 9.16497 24.5457C9.29256 24.5811 9.42101 24.6147 9.55075 24.6461C9.63825 24.6673 9.72618 24.6875 9.81454 24.7069C9.94428 24.7354 10.0745 24.7612 10.2055 24.7854C10.2943 24.8018 10.3826 24.8186 10.4723 24.8328C10.6076 24.8548 10.7439 24.8733 10.8805 24.891C10.9667 24.9022 11.0525 24.9147 11.1391 24.9237C11.29 24.9401 11.4421 24.9518 11.5943 24.9625C11.668 24.9677 11.7408 24.9755 11.8145 24.9793C12.0417 24.9923 12.2697 24.9996 12.4999 24.9996C12.7301 24.9996 12.9581 24.9923 13.1852 24.9802C13.2589 24.9763 13.3322 24.9686 13.4055 24.9634C13.5581 24.9526 13.7102 24.941 13.8607 24.9246C13.9473 24.9151 14.0331 24.903 14.1193 24.8918C14.2559 24.8742 14.3921 24.8556 14.5275 24.8336C14.6167 24.819 14.7055 24.8026 14.7943 24.7862C14.9253 24.7621 15.0559 24.7362 15.1852 24.7078C15.2736 24.6884 15.3615 24.6681 15.449 24.647C15.5783 24.6155 15.7068 24.5819 15.8348 24.5466C15.9188 24.5233 16.0033 24.5 16.087 24.475C16.2193 24.4354 16.3499 24.3927 16.4801 24.3492C16.5563 24.3233 16.6335 24.2987 16.7089 24.2716C16.8516 24.2203 16.9926 24.1655 17.1331 24.1095C17.1938 24.0854 17.2555 24.0625 17.3158 24.0375C17.5094 23.9565 17.7007 23.8716 17.8891 23.7811C17.8947 23.7785 17.9007 23.7759 17.9063 23.7733C18.1046 23.678 18.2999 23.5772 18.4921 23.472C18.5318 23.4505 18.5701 23.4268 18.6094 23.4048C18.7581 23.3211 18.9055 23.2358 19.0503 23.1466C19.1072 23.1117 19.1628 23.0746 19.2188 23.0384C19.3443 22.9582 19.4688 22.8768 19.5913 22.7927C19.6516 22.7509 19.7111 22.7078 19.771 22.6647C19.887 22.5815 20.0016 22.497 20.1145 22.4104C20.174 22.3647 20.2326 22.3181 20.2913 22.2711C20.4025 22.1824 20.5124 22.0914 20.6206 21.9987C20.6762 21.9513 20.7318 21.9035 20.7861 21.8552C20.8964 21.7574 21.0046 21.6569 21.1115 21.5552C21.1598 21.5091 21.2089 21.4634 21.2568 21.4168C21.3723 21.303 21.4852 21.1867 21.596 21.0686C21.6313 21.0306 21.668 20.994 21.7033 20.9561C21.8477 20.7987 21.9891 20.6384 22.1253 20.4742L22.1257 20.4737C21.2904 17.0694 18.6947 14.3638 15.3611 13.3591Z" fill="#00769B"/>
</g>
<defs>
<clipPath id="clip0_295_2493">
<rect width="25" height="25" fill="white"/>
</clipPath>
</defs>
</svg>
