<svg  viewBox="0 0 25 25" fill="none" xmlns="http://www.w3.org/2000/svg">
<g clip-path="url(#clip0_295_505)">
<path d="M12.5 25C19.4036 25 25 19.4036 25 12.5C25 5.59644 19.4036 0 12.5 0C5.59644 0 0 5.59644 0 12.5C0 19.4036 5.59644 25 12.5 25Z" fill="#B7DDE8"/>
<path d="M15.3612 13.3596C16.7539 12.4324 17.6724 10.8501 17.6724 9.05181C17.6724 6.19534 15.3565 3.87939 12.5 3.87939C9.64354 3.87939 7.32759 6.19534 7.32759 9.05181C7.32759 10.8501 8.24613 12.4324 9.6388 13.3596C9.6388 13.3596 9.63923 13.36 9.63966 13.36C9.63923 13.36 9.63923 13.3596 9.63923 13.3596C6.30561 14.3643 3.70992 17.0699 2.87415 20.4738L2.87458 20.4742C3.01078 20.6384 3.15216 20.7988 3.29656 20.9561C3.33147 20.9945 3.36811 21.0311 3.40389 21.0686C3.51509 21.1867 3.62759 21.3031 3.74311 21.4169C3.79096 21.4639 3.83966 21.5091 3.88837 21.5553C3.99527 21.657 4.10346 21.7574 4.2138 21.8553C4.26854 21.9035 4.32415 21.9514 4.37932 21.9988C4.48751 22.0915 4.59699 22.1824 4.70863 22.2712C4.76725 22.3182 4.8263 22.3643 4.88535 22.4104C4.99828 22.4975 5.11294 22.582 5.22889 22.6647C5.2888 22.7074 5.34785 22.7509 5.40863 22.7928C5.53104 22.8772 5.65561 22.9583 5.78104 23.0384C5.83751 23.0742 5.89268 23.1113 5.94958 23.1466C6.0944 23.2359 6.24182 23.3212 6.39052 23.4048C6.42975 23.4268 6.46811 23.4505 6.50777 23.4721C6.70001 23.5772 6.89527 23.6781 7.09354 23.7734C7.09828 23.7755 7.10345 23.7777 7.1082 23.7798C7.29742 23.8703 7.48966 23.9561 7.68406 24.0372C7.7444 24.0626 7.80604 24.085 7.86682 24.1091C8.00733 24.1652 8.14785 24.2203 8.29096 24.2712C8.36682 24.2984 8.44354 24.3229 8.51983 24.3488C8.65001 24.3928 8.78104 24.4354 8.91294 24.4747C8.99656 24.4997 9.08061 24.5229 9.16509 24.5462C9.29268 24.5816 9.42113 24.6152 9.55087 24.6466C9.63837 24.6678 9.7263 24.688 9.81466 24.7074C9.9444 24.7359 10.0746 24.7617 10.2056 24.7859C10.2944 24.8022 10.3828 24.8191 10.4724 24.8333C10.6078 24.8553 10.744 24.8738 10.8806 24.8915C10.9668 24.9027 11.0526 24.9152 11.1392 24.9242C11.2901 24.9406 11.4422 24.9522 11.5944 24.963C11.6681 24.9682 11.741 24.9759 11.8147 24.9798C12.0418 24.9928 12.2698 25.0001 12.5 25.0001C12.7302 25.0001 12.9582 24.9928 13.1854 24.9807C13.2591 24.9768 13.3323 24.9691 13.4056 24.9639C13.5582 24.9531 13.7104 24.9415 13.8608 24.9251C13.9474 24.9156 14.0332 24.9035 14.1194 24.8923C14.256 24.8747 14.3922 24.8561 14.5276 24.8341C14.6168 24.8195 14.7056 24.8031 14.7944 24.7867C14.9254 24.7626 15.056 24.7367 15.1854 24.7083C15.2737 24.6889 15.3616 24.6686 15.4491 24.6475C15.5785 24.616 15.7069 24.5824 15.8349 24.5471C15.919 24.5238 16.0035 24.5005 16.0871 24.4755C16.2194 24.4359 16.35 24.3932 16.4802 24.3497C16.5565 24.3238 16.6336 24.2992 16.7091 24.2721C16.8517 24.2208 16.9927 24.166 17.1332 24.11C17.194 24.0859 17.2556 24.063 17.316 24.038C17.5095 23.957 17.7009 23.8721 17.8892 23.7816C17.8948 23.779 17.9009 23.7764 17.9065 23.7738C18.1047 23.6785 18.3 23.5777 18.4922 23.4725C18.5319 23.4509 18.5703 23.4272 18.6095 23.4053C18.7582 23.3216 18.9056 23.2363 19.0504 23.1471C19.1073 23.1122 19.1629 23.0751 19.219 23.0389C19.3444 22.9587 19.469 22.8772 19.5914 22.7932C19.6517 22.7514 19.7112 22.7083 19.7711 22.6652C19.8871 22.582 20.0017 22.4975 20.1147 22.4109C20.1741 22.3652 20.2328 22.3186 20.2914 22.2716C20.4026 22.1828 20.5125 22.0919 20.6207 21.9992C20.6763 21.9518 20.7319 21.904 20.7862 21.8557C20.8966 21.7578 21.0047 21.6574 21.1116 21.5557C21.1599 21.5096 21.2091 21.4639 21.2569 21.4173C21.3724 21.3035 21.4854 21.1872 21.5961 21.0691C21.6315 21.0311 21.6681 20.9945 21.7035 20.9566C21.8479 20.7992 21.9892 20.6389 22.1254 20.4747L22.1259 20.4742C21.2905 17.0699 18.6948 14.3643 15.3612 13.3596Z" fill="#00769B"/>
</g>
<defs>
<clipPath id="clip0_295_505">
<rect width="25" height="25" fill="white"/>
</clipPath>
</defs>
</svg>
