<svg width="19" height="20" viewBox="0 0 19 20" fill="none" xmlns="http://www.w3.org/2000/svg">
<path d="M9.50205 12.8137C11.056 12.8137 12.3156 11.554 12.3156 10.0001C12.3156 8.4462 11.056 7.18652 9.50205 7.18652C7.94816 7.18652 6.68848 8.4462 6.68848 10.0001C6.68848 11.554 7.94816 12.8137 9.50205 12.8137Z" fill="#00769B" fill-opacity="0.6"/>
<path d="M18.9973 5.84622C19.0331 6.77844 18.6607 7.67997 17.9774 8.31513C17.718 8.52796 17.5767 8.85248 17.5976 9.18734C17.798 12.7078 17.8613 16.0173 17.8613 16.0173C17.8831 16.5554 17.4645 17.0091 16.9265 17.0308C16.3884 17.0526 15.9347 16.634 15.9129 16.096C15.9119 16.0697 15.9119 16.0435 15.9129 16.0173C15.9129 16.0173 15.934 15.0185 15.9868 13.5308C16.0255 12.3174 16.0888 10.777 16.1767 9.18734C16.1973 8.85327 16.0576 8.52936 15.8004 8.31513C14.8883 7.5698 14.5951 6.09861 14.8825 4.94939C15.1568 3.79934 15.9516 2.96582 16.8871 2.96582C18.0513 2.96582 18.9973 4.25655 18.9973 5.84622Z" fill="#00769B" fill-opacity="0.6"/>
<path d="M15.3504 8.86041C14.126 7.84634 13.7924 5.90185 14.3059 4.39738C11.6306 2.09341 7.69608 2.01371 4.92963 4.20746C4.92963 6.96626 5.00151 7.20643 4.6342 7.85808C4.43141 8.2183 4.13642 8.51813 3.77958 8.72677C3.72955 8.75789 3.68141 8.79197 3.63538 8.82876C3.46863 9.32901 3.77791 10.9924 3.87454 14.7724C6.50092 17.8811 11.1501 18.272 14.2587 15.6456C14.619 15.3411 14.9493 15.0028 15.2449 14.6353C15.2836 13.3375 15.3574 11.2766 15.477 9.14529C15.4833 9.03543 15.4361 8.9293 15.3504 8.86041ZM9.50169 13.5169C7.55931 13.5169 5.98472 11.9423 5.98472 9.99991C5.98472 8.05753 7.55931 6.48294 9.50169 6.48294C11.4441 6.48294 13.0187 8.05753 13.0187 9.99991C13.0155 11.9409 11.4428 13.5137 9.50169 13.5169Z" fill="#00769B" fill-opacity="0.6"/>
<path d="M4.02236 7.51325C3.61087 8.23775 3.07278 8.083 2.93913 8.70902C2.89266 8.96536 2.87376 9.22593 2.88286 9.48627C2.92858 10.1686 3.05871 12.1099 3.13256 13.7277C3.17209 13.7277 3.16984 15.914 3.16422 15.9751C3.03761 17.3432 1.24043 17.4522 1.05403 15.9751C0.959076 15.2471 1.07514 12.7957 1.34946 9.48979C1.36845 9.23283 1.3495 8.97451 1.29319 8.72309C1.15954 8.1041 0.621447 8.2483 0.209961 7.53083C-0.0546027 7.05714 0.00597711 7.04976 0.00597711 3.61645C-0.0211915 3.32511 0.192992 3.06687 0.484373 3.03975C0.77571 3.01258 1.03394 3.22676 1.06107 3.51815C1.0641 3.55085 1.0641 3.58378 1.06107 3.61649V5.72316C1.05505 5.86885 1.16825 5.99181 1.31394 5.99783C1.45963 6.00385 1.58259 5.89065 1.58861 5.74496C1.58892 5.73771 1.58892 5.73041 1.58861 5.72316V3.61649C1.56145 3.32515 1.77563 3.06692 2.06701 3.03979C2.35839 3.01267 2.61658 3.22681 2.64371 3.51819C2.64674 3.5509 2.64674 3.58383 2.64371 3.61653V5.7232C2.63768 5.86889 2.75089 5.99185 2.89658 5.99787C3.04227 6.0039 3.16523 5.89069 3.17125 5.745C3.17156 5.73775 3.17156 5.73045 3.17125 5.7232V3.61653C3.14237 3.32687 3.35374 3.06863 3.6434 3.03975C3.93307 3.01087 4.19131 3.22224 4.22019 3.5119C4.2219 3.52914 4.22278 3.54646 4.22278 3.56378V3.5673C4.22568 3.58352 4.22687 3.60005 4.2263 3.61653C4.22634 7.0305 4.28727 7.04321 4.02236 7.51325Z" fill="#00769B" fill-opacity="0.6"/>
</svg>
