<svg viewBox="0 0 25 26" fill="current" xmlns="http://www.w3.org/2000/svg">
<g clip-path="url(#clip0_187_2050)">
<path d="M24.2013 23.271L18.2513 17.0827C19.7811 15.2641 20.6194 12.9759 20.6194 10.5937C20.6194 5.02814 16.0912 0.5 10.5256 0.5C4.96002 0.5 0.431885 5.02814 0.431885 10.5937C0.431885 16.1593 4.96002 20.6875 10.5256 20.6875C12.615 20.6875 14.6061 20.0573 16.3085 18.861L22.3037 25.0963C22.5543 25.3565 22.8913 25.5 23.2525 25.5C23.5944 25.5 23.9187 25.3697 24.1649 25.1327C24.688 24.6293 24.7047 23.7946 24.2013 23.271ZM10.5256 3.13315C14.6395 3.13315 17.9862 6.47988 17.9862 10.5937C17.9862 14.7076 14.6395 18.0543 10.5256 18.0543C6.41177 18.0543 3.06503 14.7076 3.06503 10.5937C3.06503 6.47988 6.41177 3.13315 10.5256 3.13315Z" fill="current"/>
</g>
<defs>
<clipPath id="clip0_187_2050">
<rect width="25" height="25" fill="white" transform="translate(0 0.5)"/>
</clipPath>
</defs>
</svg>
