<svg width="79" height="79" viewBox="0 0 79 79" fill="none" xmlns="http://www.w3.org/2000/svg">
<g filter="url(#filter0_d_1317_49)">
<rect x="10" y="6" width="59" height="59" rx="8" fill="#00769B"/>
</g>
<path d="M54.7692 16.8262H52.4615V19.5662C52.4615 20.5351 52.0725 21.4643 51.3801 22.1494C50.6876 22.8346 49.7485 23.2195 48.7692 23.2195H31.2308C30.2515 23.2195 29.3124 22.8346 28.6199 22.1494C27.9275 21.4643 27.5385 20.5351 27.5385 19.5662V16.8262H25.2308C24.3754 16.831 23.5565 17.1693 22.9516 17.7677C22.3468 18.3662 22.0048 19.1765 22 20.0228V51.076C22.0048 51.9224 22.3468 52.7327 22.9516 53.3311C23.5565 53.9296 24.3754 54.2679 25.2308 54.2727H54.7692C55.6246 54.2679 56.4435 53.9296 57.0484 53.3311C57.6532 52.7327 57.9952 51.9224 58 51.076V20.0228C57.9952 19.1765 57.6532 18.3662 57.0484 17.7677C56.4435 17.1693 55.6246 16.831 54.7692 16.8262ZM37.3231 44.427L32.7077 49.2494C32.5781 49.3877 32.421 49.498 32.2462 49.5734C32.0715 49.6489 31.8829 49.6878 31.6923 49.6878C31.3513 49.6918 31.0215 49.5678 30.7692 49.3407L28 46.9295C27.7258 46.6873 27.5601 46.3472 27.5393 45.9841C27.5185 45.621 27.6444 45.2646 27.8892 44.9933C28.134 44.722 28.4778 44.558 28.8448 44.5374C29.2117 44.5169 29.572 44.6414 29.8462 44.8837L31.6923 46.4363L35.3846 42.5455C35.6442 42.289 35.9962 42.1449 36.3631 42.1449C36.73 42.1449 37.0819 42.289 37.3415 42.5455C37.5818 42.8022 37.7138 43.1401 37.7104 43.4899C37.7069 43.8397 37.5684 44.175 37.3231 44.427ZM37.3231 31.6404L32.7077 36.4628C32.5781 36.6011 32.421 36.7114 32.2462 36.7868C32.0715 36.8623 31.8829 36.9012 31.6923 36.9012C31.3513 36.9052 31.0215 36.7812 30.7692 36.5541L28 34.1429C27.7258 33.9007 27.5601 33.5606 27.5393 33.1975C27.529 33.0177 27.5546 32.8376 27.6147 32.6676C27.6747 32.4976 27.768 32.341 27.8892 32.2066C28.0105 32.0723 28.1572 31.9629 28.3212 31.8847C28.4851 31.8065 28.663 31.761 28.8448 31.7508C29.2117 31.7303 29.572 31.8548 29.8462 32.097L31.6923 33.6497L35.3846 29.7589C35.6442 29.5024 35.9962 29.3583 36.3631 29.3583C36.73 29.3583 37.0819 29.5024 37.3415 29.7589C37.5818 30.0156 37.7138 30.3534 37.7104 30.7033C37.7069 31.0531 37.5684 31.3884 37.3231 31.6404ZM47.3846 49.706H41.8462C41.4789 49.706 41.1267 49.5617 40.8671 49.3048C40.6074 49.0479 40.4615 48.6994 40.4615 48.336C40.4615 47.9727 40.6074 47.6242 40.8671 47.3673C41.1267 47.1104 41.4789 46.966 41.8462 46.966H47.3846C47.7518 46.966 48.104 47.1104 48.3637 47.3673C48.6234 47.6242 48.7692 47.9727 48.7692 48.336C48.7692 48.6994 48.6234 49.0479 48.3637 49.3048C48.104 49.5617 47.7518 49.706 47.3846 49.706ZM51.0769 44.2261H41.8462C41.4789 44.2261 41.1267 44.0817 40.8671 43.8248C40.6074 43.5679 40.4615 43.2194 40.4615 42.8561C40.4615 42.4927 40.6074 42.1443 40.8671 41.8873C41.1267 41.6304 41.4789 41.4861 41.8462 41.4861H51.0769C51.4441 41.4861 51.7963 41.6304 52.056 41.8873C52.3157 42.1443 52.4615 42.4927 52.4615 42.8561C52.4615 43.2194 52.3157 43.5679 52.056 43.8248C51.7963 44.0817 51.4441 44.2261 51.0769 44.2261ZM40.4615 35.5494C40.4663 35.1876 40.6137 34.8418 40.8724 34.5859C41.131 34.33 41.4804 34.1842 41.8462 34.1794H47.3846C47.7518 34.1794 48.104 34.3238 48.3637 34.5807C48.6234 34.8376 48.7692 35.1861 48.7692 35.5494C48.7692 35.9128 48.6234 36.2612 48.3637 36.5182C48.104 36.7751 47.7518 36.9194 47.3846 36.9194H41.8462C41.4804 36.9147 41.131 36.7688 40.8724 36.5129C40.6137 36.257 40.4663 35.9113 40.4615 35.5494ZM51.0769 31.4394H41.8462C41.4789 31.4394 41.1267 31.2951 40.8671 31.0382C40.6074 30.7813 40.4615 30.4328 40.4615 30.0695C40.4615 29.7061 40.6074 29.3576 40.8671 29.1007C41.1267 28.8438 41.4789 28.6995 41.8462 28.6995H51.0769C51.4441 28.6995 51.7963 28.8438 52.056 29.1007C52.3157 29.3576 52.4615 29.7061 52.4615 30.0695C52.4615 30.4328 52.3157 30.7813 52.056 31.0382C51.7963 31.2951 51.4441 31.4394 51.0769 31.4394Z" fill="white"/>
<path d="M48.7694 15H31.2309C30.2113 15 29.3848 15.8178 29.3848 16.8267V19.5666C29.3848 20.5755 30.2113 21.3933 31.2309 21.3933H48.7694C49.789 21.3933 50.6155 20.5755 50.6155 19.5666V16.8267C50.6155 15.8178 49.789 15 48.7694 15Z" fill="white"/>
<defs>
<filter id="filter0_d_1317_49" x="0" y="0" width="79" height="79" filterUnits="userSpaceOnUse" color-interpolation-filters="sRGB">
<feFlood flood-opacity="0" result="BackgroundImageFix"/>
<feColorMatrix in="SourceAlpha" type="matrix" values="0 0 0 0 0 0 0 0 0 0 0 0 0 0 0 0 0 0 127 0" result="hardAlpha"/>
<feOffset dy="4"/>
<feGaussianBlur stdDeviation="5"/>
<feComposite in2="hardAlpha" operator="out"/>
<feColorMatrix type="matrix" values="0 0 0 0 0 0 0 0 0 0 0 0 0 0 0 0 0 0 0.25 0"/>
<feBlend mode="normal" in2="BackgroundImageFix" result="effect1_dropShadow_1317_49"/>
<feBlend mode="normal" in="SourceGraphic" in2="effect1_dropShadow_1317_49" result="shape"/>
</filter>
</defs>
</svg>
