<svg viewBox="0 0 24 27" fill="current" xmlns="http://www.w3.org/2000/svg">
<path d="M21.8462 1.23047H20.3077V3.07662C20.3077 3.72946 20.0484 4.35557 19.5867 4.81719C19.1251 5.27882 18.499 5.53816 17.8462 5.53816H6.15385C5.50101 5.53816 4.8749 5.27882 4.41328 4.81719C3.95165 4.35557 3.69231 3.72946 3.69231 3.07662V1.23047H2.15385C1.58361 1.2337 1.03764 1.46166 0.634417 1.86489C0.231191 2.26811 0.00323089 2.81408 0 3.38432V24.3074C0.00323089 24.8776 0.231191 25.4236 0.634417 25.8268C1.03764 26.23 1.58361 26.458 2.15385 26.4612H21.8462C22.4164 26.458 22.9624 26.23 23.3656 25.8268C23.7688 25.4236 23.9968 24.8776 24 24.3074V3.38432C23.9968 2.81408 23.7688 2.26811 23.3656 1.86489C22.9624 1.46166 22.4164 1.2337 21.8462 1.23047ZM10.2154 19.8274L7.13846 23.0766C7.05204 23.1698 6.94731 23.2441 6.83083 23.295C6.71435 23.3458 6.58863 23.372 6.46154 23.372C6.23421 23.3747 6.01431 23.2912 5.84615 23.1382L4 21.5135C3.8172 21.3503 3.70673 21.1212 3.69288 20.8765C3.67903 20.6319 3.76294 20.3917 3.92615 20.2089C4.08936 20.0261 4.3185 19.9157 4.56317 19.9018C4.80783 19.888 5.04797 19.9719 5.23077 20.1351L6.46154 21.1812L8.92308 18.5597C9.09615 18.3868 9.33077 18.2897 9.57539 18.2897C9.82 18.2897 10.0546 18.3868 10.2277 18.5597C10.3879 18.7326 10.4759 18.9603 10.4736 19.196C10.4713 19.4317 10.3789 19.6576 10.2154 19.8274ZM10.2154 11.212L7.13846 14.4612C7.05204 14.5544 6.94731 14.6288 6.83083 14.6796C6.71435 14.7304 6.58863 14.7566 6.46154 14.7566C6.23421 14.7593 6.01431 14.6758 5.84615 14.5228L4 12.8982C3.8172 12.735 3.70673 12.5058 3.69288 12.2611C3.68603 12.14 3.7031 12.0187 3.74312 11.9041C3.78315 11.7896 3.84534 11.6841 3.92615 11.5935C4.00697 11.503 4.10482 11.4293 4.21412 11.3766C4.32342 11.3239 4.44202 11.2933 4.56317 11.2864C4.80783 11.2726 5.04797 11.3565 5.23077 11.5197L6.46154 12.5659L8.92308 9.94431C9.09615 9.77145 9.33077 9.67436 9.57539 9.67436C9.82 9.67436 10.0546 9.77145 10.2277 9.94431C10.3879 10.1172 10.4759 10.3449 10.4736 10.5806C10.4713 10.8163 10.3789 11.0422 10.2154 11.212ZM16.9231 23.3843H13.2308C12.986 23.3843 12.7512 23.2871 12.5781 23.114C12.4049 22.9408 12.3077 22.7061 12.3077 22.4612C12.3077 22.2164 12.4049 21.9816 12.5781 21.8085C12.7512 21.6354 12.986 21.5382 13.2308 21.5382H16.9231C17.1679 21.5382 17.4027 21.6354 17.5758 21.8085C17.7489 21.9816 17.8462 22.2164 17.8462 22.4612C17.8462 22.7061 17.7489 22.9408 17.5758 23.114C17.4027 23.2871 17.1679 23.3843 16.9231 23.3843ZM19.3846 19.692H13.2308C12.986 19.692 12.7512 19.5948 12.5781 19.4216C12.4049 19.2485 12.3077 19.0137 12.3077 18.7689C12.3077 18.5241 12.4049 18.2893 12.5781 18.1162C12.7512 17.9431 12.986 17.8459 13.2308 17.8459H19.3846C19.6294 17.8459 19.8642 17.9431 20.0373 18.1162C20.2104 18.2893 20.3077 18.5241 20.3077 18.7689C20.3077 19.0137 20.2104 19.2485 20.0373 19.4216C19.8642 19.5948 19.6294 19.692 19.3846 19.692ZM12.3077 13.8459C12.3109 13.602 12.4092 13.3691 12.5816 13.1967C12.754 13.0242 12.9869 12.926 13.2308 12.9228H16.9231C17.1679 12.9228 17.4027 13.02 17.5758 13.1931C17.7489 13.3663 17.8462 13.601 17.8462 13.8459C17.8462 14.0907 17.7489 14.3255 17.5758 14.4986C17.4027 14.6717 17.1679 14.7689 16.9231 14.7689H13.2308C12.9869 14.7657 12.754 14.6675 12.5816 14.495C12.4092 14.3226 12.3109 14.0897 12.3077 13.8459ZM19.3846 11.0766H13.2308C12.986 11.0766 12.7512 10.9794 12.5781 10.8063C12.4049 10.6331 12.3077 10.3984 12.3077 10.1535C12.3077 9.90873 12.4049 9.67394 12.5781 9.50083C12.7512 9.32772 12.986 9.23047 13.2308 9.23047H19.3846C19.6294 9.23047 19.8642 9.32772 20.0373 9.50083C20.2104 9.67394 20.3077 9.90873 20.3077 10.1535C20.3077 10.3984 20.2104 10.6331 20.0373 10.8063C19.8642 10.9794 19.6294 11.0766 19.3846 11.0766Z" fill="current"/>
<path d="M17.8464 0H6.15411C5.47437 0 4.92334 0.551034 4.92334 1.23077V3.07692C4.92334 3.75666 5.47437 4.30769 6.15411 4.30769H17.8464C18.5262 4.30769 19.0772 3.75666 19.0772 3.07692V1.23077C19.0772 0.551034 18.5262 0 17.8464 0Z" fill="#595959"/>
</svg>
