<svg width="20" height="20" viewBox="0 0 20 20" fill="#fff" xmlns="http://www.w3.org/2000/svg">
<path d="M16.9902 10.1823L16.9898 10.1819L13.3207 6.81887C12.9211 6.4525 12.4486 6.19398 11.9434 6.02973C12.7816 5.42371 13.3334 4.44438 13.3334 3.33336C13.3333 1.49535 11.838 0 10 0C8.16203 0 6.66668 1.49535 6.66668 3.33332C6.66668 4.44438 7.21844 5.42367 8.0566 6.02969C7.55148 6.19391 7.07899 6.45246 6.6793 6.81883L3.00984 10.1823C2.68594 10.4797 2.5 10.9025 2.5 11.3424C2.5 12.2103 3.20637 12.9167 4.10402 12.9167C4.51824 12.9167 4.92395 12.7486 5.21691 12.4557L6.71066 10.9619C6.75785 11.4705 6.84289 11.9633 6.96496 12.4365L5.4643 14.5198C4.88121 15.297 4.85191 16.3619 5.39066 17.1704L6.83148 19.3314C7.1102 19.7502 7.57691 20 8.08352 20C8.91035 20 9.58336 19.327 9.58336 18.5002V18.2967C9.58336 17.9578 9.46656 17.6249 9.255 17.3596L8.09371 15.9086L8.74883 15.4175C9.54149 15.97 10.4586 15.97 11.2513 15.4175L11.906 15.9086L10.7451 17.36C10.5335 17.6249 10.4167 17.9577 10.4167 18.2967V18.5001C10.4167 19.327 11.0897 20 11.9202 20C12.4232 20 12.8899 19.7501 13.1682 19.3318L14.6257 17.1455C15.1547 16.3525 15.1258 15.3068 14.5586 14.5499L13.0352 12.4361C13.1572 11.9632 13.2423 11.4705 13.2895 10.9618L14.7832 12.4556C15.0762 12.7486 15.4818 12.9166 15.9258 12.9166C16.7937 12.9166 17.5001 12.2102 17.5001 11.3423C17.5 10.9025 17.3141 10.4797 16.9902 10.1823ZM10 15C9.13086 15 8.29754 14.0149 7.84629 12.5H12.1538C11.7025 14.0149 10.8691 15 10 15Z" fill="#fff"/>
</svg>
