<svg  viewBox="0 0 46 46" fill="current" xmlns="http://www.w3.org/2000/svg">
<circle cx="23.0957" cy="23.0957" r="21.5625" fill="current"/>
<path d="M24.0206 11.917C23.8839 11.7862 23.7227 11.6836 23.5463 11.6152C23.1963 11.4714 22.8037 11.4714 22.4538 11.6152C22.2773 11.6836 22.1161 11.7862 21.9794 11.917L16.2294 17.667C15.9587 17.9377 15.8066 18.3048 15.8066 18.6877C15.8066 19.0705 15.9587 19.4376 16.2294 19.7083C16.5001 19.979 16.8672 20.131 17.25 20.131C17.6328 20.131 18 19.979 18.2706 19.7083L21.5625 16.402V33.0627C21.5625 33.4439 21.714 33.8095 21.9836 34.0791C22.2531 34.3487 22.6188 34.5002 23 34.5002C23.3813 34.5002 23.7469 34.3487 24.0165 34.0791C24.2861 33.8095 24.4375 33.4439 24.4375 33.0627V16.402L27.7294 19.7083C27.863 19.843 28.022 19.95 28.1972 20.0229C28.3724 20.0959 28.5603 20.1335 28.75 20.1335C28.9398 20.1335 29.1277 20.0959 29.3029 20.0229C29.478 19.95 29.637 19.843 29.7706 19.7083C29.9054 19.5746 30.0123 19.4157 30.0853 19.2405C30.1583 19.0653 30.1959 18.8774 30.1959 18.6877C30.1959 18.4979 30.1583 18.31 30.0853 18.1348C30.0123 17.9597 29.9054 17.8007 29.7706 17.667L24.0206 11.917Z" fill="white"/>
</svg>
