<svg width="60" height="32" viewBox="0 0 60 32" fill="none" xmlns="http://www.w3.org/2000/svg">
<rect x="0.5" y="0.5" width="59" height="31" rx="13.5" fill="white"/>
<path d="M23.7596 9.6V10.368C23.7596 10.9867 23.9836 11.584 24.4316 12.16C24.8903 12.7253 25.5036 13.2107 26.2716 13.616C27.0503 14.0107 27.8876 14.272 28.7836 14.4L28.1916 15.568C27.0503 15.3867 26.0103 15.008 25.0716 14.432C24.1436 13.856 23.4556 13.1573 23.0076 12.336C22.5703 13.168 21.8823 13.8667 20.9436 14.432C20.0156 14.9973 18.9703 15.376 17.8076 15.568L17.2156 14.4C18.1223 14.272 18.9596 14.0107 19.7276 13.616C20.4956 13.2213 21.1036 12.7413 21.5516 12.176C22.0103 11.6 22.2396 10.9973 22.2396 10.368V9.6H23.7596ZM16.6076 16.992H29.3756V18.192H23.6796V23.232H22.2396V18.192H16.6076V16.992ZM40.784 12.72V9.12H42.24V17.504H40.784V13.92H38.128V12.72H40.784ZM30.608 16.256C31.312 16 31.9253 15.6373 32.448 15.168C32.9813 14.688 33.392 14.144 33.68 13.536C33.968 12.9173 34.112 12.2773 34.112 11.616V11.296H31.04V10.096H38.592V11.296H35.568V11.616C35.568 12.5227 35.872 13.3707 36.48 14.16C37.088 14.9493 37.9093 15.52 38.944 15.872L38.208 17.024C37.44 16.7467 36.768 16.3413 36.192 15.808C35.6267 15.2747 35.1893 14.6507 34.88 13.936C34.5707 14.736 34.112 15.44 33.504 16.048C32.896 16.656 32.176 17.1147 31.344 17.424L30.608 16.256ZM32.832 20.576C32.832 19.744 33.2533 19.0933 34.096 18.624C34.9387 18.1547 36.096 17.92 37.568 17.92C39.04 17.92 40.192 18.1547 41.024 18.624C41.8667 19.0933 42.288 19.744 42.288 20.576C42.288 21.408 41.8667 22.0533 41.024 22.512C40.192 22.9813 39.04 23.216 37.568 23.216C36.0853 23.216 34.9227 22.9813 34.08 22.512C33.248 22.0533 32.832 21.408 32.832 20.576ZM34.288 20.576C34.288 21.056 34.576 21.4293 35.152 21.696C35.728 21.9627 36.5333 22.096 37.568 22.096C38.592 22.096 39.392 21.9627 39.968 21.696C40.5547 21.4293 40.848 21.056 40.848 20.576C40.848 20.0853 40.5547 19.7067 39.968 19.44C39.392 19.1733 38.592 19.04 37.568 19.04C36.5333 19.04 35.728 19.1733 35.152 19.44C34.576 19.7067 34.288 20.0853 34.288 20.576Z" fill="#00769B"/>
<rect x="0.5" y="0.5" width="59" height="31" rx="13.5" stroke="#00769B"/>
</svg>
