<svg  viewBox="0 0 48 42" fill="current" xmlns="http://www.w3.org/2000/svg">
<path d="M37.4294 31.8694C37.0719 31.8694 36.7367 31.75 36.4239 31.5111C35.6865 30.9138 35.5301 29.791 36.0887 29.0027C39.597 24.0097 39.597 17.0338 36.0887 12.0408C35.5301 11.2524 35.6865 10.1296 36.4239 9.53234C37.1613 8.93509 38.2115 9.10232 38.7702 9.89069C43.1499 16.1499 43.1499 24.8936 38.7702 31.1527C38.435 31.6305 37.9434 31.8694 37.4294 31.8694Z" fill="current"/>
<path d="M41.5144 37.8417C41.1569 37.8417 40.8217 37.7223 40.5089 37.4834C39.7715 36.8861 39.615 35.7633 40.1737 34.9749C46.1399 26.4701 46.1399 14.5729 40.1737 6.06812C39.615 5.27975 39.7715 4.15693 40.5089 3.55968C41.2463 2.96244 42.2965 3.12967 42.8551 3.91803C49.7152 13.689 49.7152 27.3541 42.8551 37.125C42.5423 37.6028 42.0284 37.8417 41.5144 37.8417Z" fill="current"/>
<path d="M28.5351 0.887558C26.0324 -0.593614 22.837 -0.211376 19.5746 1.9626L13.0497 6.33445C12.6028 6.62113 12.0889 6.78836 11.5749 6.78836H9.49681H8.37954C2.97194 6.78836 0 9.96571 0 15.7471V25.3031C0 31.0844 2.97194 34.2618 8.37954 34.2618H9.49681H11.5749C12.0889 34.2618 12.6028 34.429 13.0497 34.7157L19.5746 39.0875C21.541 40.4014 23.4627 41.0465 25.2503 41.0465C26.4123 41.0465 27.5296 40.7598 28.5351 40.1626C31.0155 38.6814 32.4009 35.5996 32.4009 31.4905V9.55958C32.4009 5.45052 31.0155 2.36873 28.5351 0.887558Z" fill="current"/>
</svg>
