<svg width="16" height="16" viewBox="0 0 16 16" fill="none" xmlns="http://www.w3.org/2000/svg">
<path d="M9.33095 8.00012L15.7243 1.60679C16.0923 1.2388 16.0923 0.643992 15.7243 0.275997C15.3563 -0.0919989 14.7615 -0.0919989 14.3935 0.275997L8.00016 6.66933L1.60679 0.275997C1.2388 -0.0919989 0.643992 -0.0919989 0.275997 0.275997C-0.0919989 0.643992 -0.0919989 1.2388 0.275997 1.60679L6.66933 8.00012L0.275997 14.3935C-0.0919989 14.7615 -0.0919989 15.3563 0.275997 15.7243C0.459526 15.9078 0.700461 16 0.941395 16C1.18233 16 1.42326 15.9078 1.60679 15.7243L8.00012 9.33092L14.3935 15.7243C14.577 15.9078 14.8179 16 15.0589 16C15.2998 16 15.5407 15.9078 15.7243 15.7243C16.0922 15.3563 16.0922 14.7615 15.7243 14.3935L9.33095 8.00012Z" fill="#D7443E"/>
</svg>
